M48
INCH,TZ
T1C0.024
T2C0.025
T3C0.032
%
G90
G05
T1
X24000Y-17189
X24000Y-40811
X25000Y-17189
X25000Y-40811
X26000Y-17189
X26000Y-40811
X27000Y-17189
X27000Y-40811
X28000Y-17189
X28000Y-40811
X29000Y-17189
X29000Y-40811
X30000Y-17189
X30000Y-40811
X31000Y-17189
X31000Y-40811
X32000Y-17189
X32000Y-40811
X33000Y-17189
X33000Y-40811
T2
X23000Y-20500
X31000Y-38000
X31500Y-37500
X32000Y-37000
X32500Y-18000
X33000Y-18500
X33500Y-19000
X34000Y-19500
X34000Y-23500
X34500Y-20000
X34500Y-23500
X35500Y-22000
X36500Y-29000
T3
X19500Y-16000
X19500Y-17000
X19500Y-18000
X19500Y-19000
X19500Y-20000
X19500Y-21000
X19500Y-22000
X19500Y-23000
X19500Y-24000
X19500Y-25000
X27000Y-22000
X27000Y-23000
X27000Y-24000
X27000Y-25000
X27000Y-26000
X27000Y-27000
X27000Y-28000
X27000Y-29000
X27000Y-30000
X27000Y-31000
X27000Y-32000
X27000Y-33000
X27000Y-34000
X27000Y-35000
X30000Y-22000
X30000Y-23000
X30000Y-24000
X30000Y-25000
X30000Y-26000
X30000Y-27000
X30000Y-28000
X30000Y-29000
X30000Y-30000
X30000Y-31000
X30000Y-32000
X30000Y-33000
X30000Y-34000
X30000Y-35000
X31500Y-28000
X31500Y-29000
X37500Y-16000
X37500Y-17000
X37500Y-18000
X37500Y-19000
X37500Y-20000
X37500Y-21000
X37500Y-22000
X37500Y-23000
X37500Y-24000
X37500Y-25000
T0
M30
