<?xml version="1.0" standalone="no"?>
 <!DOCTYPE svg PUBLIC "-//W3C//DTD SVG 1.1//EN" 
 "http://www.w3.org/Graphics/SVG/1.1/DTD/svg11.dtd"> 
<svg xmlns="http://www.w3.org/2000/svg" version="1.1" 
    width="41.9989cm" height="29.7002cm" viewBox="0 0 165350 116930 ">
<title>SVG Picture created as clock--brd.svg date 2014/09/09 18:47:02 </title>
  <desc>Picture generated by PCBNEW </desc>
<g style="fill:#000000; fill-opacity:1;stroke:#000000; stroke-opacity:1;
stroke-linecap:round; stroke-linejoin:round; "
 transform="translate(0 0) scale(1 1)">
</g>
<g style="fill:#000000; fill-opacity:0.0; 
stroke:#000000; stroke-width:39.3701; stroke-opacity:1; 
stroke-linecap:round; stroke-linejoin:round;">
<path d="M4000 4000
L161350 4000
L161350 112930
L4000 112930
L4000 4000
" />
<path d="M4700 4700
L160650 4700
L160650 112230
L4700 112230
L4700 4700
" />
<path d="M26470 4000
L26470 4700
" />
<path d="M15382 4552
L15097 4552
" />
<path d="M15240 4552
L15240 4052
L15192 4123
L15144 4171
L15097 4195
" />
<path d="M26470 112930
L26470 112230
" />
<path d="M15382 112782
L15097 112782
" />
<path d="M15240 112782
L15240 112282
L15192 112353
L15144 112401
L15097 112425
" />
<path d="M48940 4000
L48940 4700
" />
<path d="M37567 4100
L37590 4076
L37638 4052
L37757 4052
L37805 4076
L37829 4100
L37852 4147
L37852 4195
L37829 4266
L37543 4552
L37852 4552
" />
<path d="M48940 112930
L48940 112230
" />
<path d="M37567 112330
L37590 112306
L37638 112282
L37757 112282
L37805 112306
L37829 112330
L37852 112377
L37852 112425
L37829 112496
L37543 112782
L37852 112782
" />
<path d="M71410 4000
L71410 4700
" />
<path d="M60013 4052
L60322 4052
L60156 4242
L60227 4242
L60275 4266
L60299 4290
L60322 4338
L60322 4457
L60299 4504
L60275 4528
L60227 4552
L60084 4552
L60037 4528
L60013 4504
" />
<path d="M71410 112930
L71410 112230
" />
<path d="M60013 112282
L60322 112282
L60156 112472
L60227 112472
L60275 112496
L60299 112520
L60322 112568
L60322 112687
L60299 112734
L60275 112758
L60227 112782
L60084 112782
L60037 112758
L60013 112734
" />
<path d="M93880 4000
L93880 4700
" />
<path d="M82745 4219
L82745 4552
" />
<path d="M82626 4028
L82507 4385
L82816 4385
" />
<path d="M93880 112930
L93880 112230
" />
<path d="M82745 112449
L82745 112782
" />
<path d="M82626 112258
L82507 112615
L82816 112615
" />
<path d="M116350 4000
L116350 4700
" />
<path d="M105239 4052
L105000 4052
L104977 4290
L105000 4266
L105048 4242
L105167 4242
L105215 4266
L105239 4290
L105262 4338
L105262 4457
L105239 4504
L105215 4528
L105167 4552
L105048 4552
L105000 4528
L104977 4504
" />
<path d="M116350 112930
L116350 112230
" />
<path d="M105239 112282
L105000 112282
L104977 112520
L105000 112496
L105048 112472
L105167 112472
L105215 112496
L105239 112520
L105262 112568
L105262 112687
L105239 112734
L105215 112758
L105167 112782
L105048 112782
L105000 112758
L104977 112734
" />
<path d="M138820 4000
L138820 4700
" />
<path d="M127685 4052
L127590 4052
L127542 4076
L127518 4100
L127470 4171
L127447 4266
L127447 4457
L127470 4504
L127494 4528
L127542 4552
L127637 4552
L127685 4528
L127709 4504
L127732 4457
L127732 4338
L127709 4290
L127685 4266
L127637 4242
L127542 4242
L127494 4266
L127470 4290
L127447 4338
" />
<path d="M138820 112930
L138820 112230
" />
<path d="M127685 112282
L127590 112282
L127542 112306
L127518 112330
L127470 112401
L127447 112496
L127447 112687
L127470 112734
L127494 112758
L127542 112782
L127637 112782
L127685 112758
L127709 112734
L127732 112687
L127732 112568
L127709 112520
L127685 112496
L127637 112472
L127542 112472
L127494 112496
L127470 112520
L127447 112568
" />
<path d="M149893 4052
L150226 4052
L150012 4552
" />
<path d="M149893 112282
L150226 112282
L150012 112782
" />
<path d="M4000 25780
L4700 25780
" />
<path d="M4230 14949
L4469 14949
" />
<path d="M4183 15092
L4350 14592
L4516 15092
" />
<path d="M161350 25780
L160650 25780
" />
<path d="M160880 14949
L161119 14949
" />
<path d="M160833 15092
L161000 14592
L161166 15092
" />
<path d="M4000 47560
L4700 47560
" />
<path d="M4385 36610
L4457 36634
L4480 36658
L4504 36705
L4504 36777
L4480 36824
L4457 36848
L4409 36872
L4219 36872
L4219 36372
L4385 36372
L4433 36396
L4457 36420
L4480 36467
L4480 36515
L4457 36562
L4433 36586
L4385 36610
L4219 36610
" />
<path d="M161350 47560
L160650 47560
" />
<path d="M161035 36610
L161107 36634
L161130 36658
L161154 36705
L161154 36777
L161130 36824
L161107 36848
L161059 36872
L160869 36872
L160869 36372
L161035 36372
L161083 36396
L161107 36420
L161130 36467
L161130 36515
L161107 36562
L161083 36586
L161035 36610
L160869 36610
" />
<path d="M4000 69340
L4700 69340
" />
<path d="M4504 58604
L4480 58628
L4409 58652
L4361 58652
L4290 58628
L4242 58580
L4219 58533
L4195 58438
L4195 58366
L4219 58271
L4242 58223
L4290 58176
L4361 58152
L4409 58152
L4480 58176
L4504 58200
" />
<path d="M161350 69340
L160650 69340
" />
<path d="M161154 58604
L161130 58628
L161059 58652
L161011 58652
L160940 58628
L160892 58580
L160869 58533
L160845 58438
L160845 58366
L160869 58271
L160892 58223
L160940 58176
L161011 58152
L161059 58152
L161130 58176
L161154 58200
" />
<path d="M4000 91120
L4700 91120
" />
<path d="M4219 80432
L4219 79932
L4338 79932
L4409 79956
L4457 80003
L4480 80051
L4504 80146
L4504 80218
L4480 80313
L4457 80360
L4409 80408
L4338 80432
L4219 80432
" />
<path d="M161350 91120
L160650 91120
" />
<path d="M160869 80432
L160869 79932
L160988 79932
L161059 79956
L161107 80003
L161130 80051
L161154 80146
L161154 80218
L161130 80313
L161107 80360
L161059 80408
L160988 80432
L160869 80432
" />
<path d="M4242 101950
L4409 101950
" />
<path d="M4480 102212
L4242 102212
L4242 101712
L4480 101712
" />
<path d="M160892 101950
L161059 101950
" />
<path d="M161130 102212
L160892 102212
L160892 101712
L161130 101712
" />
<path d="M127800 110672
L127875 110072
L128017 110072
L128100 110101
L128150 110158
L128171 110215
L128185 110330
L128175 110415
L128132 110530
L128096 110587
L128032 110644
L127942 110672
L127800 110672
" />
<path d="M128657 110672
L128696 110358
L128675 110301
L128621 110272
L128507 110272
L128446 110301
" />
<path d="M128660 110644
L128600 110672
L128457 110672
L128403 110644
L128382 110587
L128389 110530
L128425 110472
L128485 110444
L128628 110444
L128689 110415
" />
<path d="M128907 110272
L129135 110272
" />
<path d="M129017 110072
L128953 110587
L128975 110644
L129028 110672
L129085 110672
" />
<path d="M129517 110644
L129457 110672
L129342 110672
L129289 110644
L129267 110587
L129296 110358
L129332 110301
L129392 110272
L129507 110272
L129560 110301
L129582 110358
L129575 110415
L129282 110472
" />
<path d="M129807 110615
L129832 110644
L129800 110672
L129775 110644
L129807 110615
L129800 110672
" />
<path d="M129846 110301
L129871 110330
L129839 110358
L129814 110330
L129846 110301
L129839 110358
" />
<path d="M130857 110672
L130514 110672
" />
<path d="M130685 110672
L130760 110072
L130692 110158
L130628 110215
L130567 110244
" />
<path d="M131303 110072
L131360 110072
L131414 110101
L131439 110130
L131460 110187
L131475 110301
L131457 110444
L131414 110558
L131378 110615
L131346 110644
L131285 110672
L131228 110672
L131175 110644
L131150 110615
L131128 110558
L131114 110444
L131132 110301
L131175 110187
L131210 110130
L131242 110101
L131303 110072
" />
<path d="M132117 110644
L132171 110672
L132285 110672
L132346 110644
L132382 110587
L132385 110558
L132364 110501
L132310 110472
L132225 110472
L132171 110444
L132150 110387
L132153 110358
L132189 110301
L132250 110272
L132335 110272
L132389 110301
" />
<path d="M132860 110644
L132800 110672
L132685 110672
L132632 110644
L132610 110587
L132639 110358
L132675 110301
L132735 110272
L132850 110272
L132903 110301
L132925 110358
L132917 110415
L132625 110472
" />
<path d="M133192 110272
L133117 110872
" />
<path d="M133189 110301
L133250 110272
L133364 110272
L133417 110301
L133442 110330
L133464 110387
L133442 110558
L133407 110615
L133375 110644
L133314 110672
L133200 110672
L133146 110644
" />
<path d="M134182 110130
L134214 110101
L134275 110072
L134417 110072
L134471 110101
L134496 110130
L134517 110187
L134510 110244
L134471 110330
L134085 110672
L134457 110672
" />
<path d="M134903 110072
L134960 110072
L135014 110101
L135039 110130
L135060 110187
L135075 110301
L135057 110444
L135014 110558
L134978 110615
L134946 110644
L134885 110672
L134828 110672
L134775 110644
L134750 110615
L134728 110558
L134714 110444
L134732 110301
L134775 110187
L134810 110130
L134842 110101
L134903 110072
" />
<path d="M135600 110672
L135257 110672
" />
<path d="M135428 110672
L135503 110072
L135435 110158
L135371 110215
L135310 110244
" />
<path d="M136164 110272
L136114 110672
" />
<path d="M136050 110044
L135853 110472
L136225 110472
" />
<path d="M119392 111872
L119392 111272
" />
<path d="M119735 111872
L119478 111530
" />
<path d="M119735 111272
L119392 111615
" />
<path d="M119992 111872
L119992 111472
" />
<path d="M119992 111272
L119964 111301
L119992 111330
L120021 111301
L119992 111272
L119992 111330
" />
<path d="M120621 111815
L120592 111844
L120507 111872
L120450 111872
L120364 111844
L120307 111787
L120278 111730
L120250 111615
L120250 111530
L120278 111415
L120307 111358
L120364 111301
L120450 111272
L120507 111272
L120592 111301
L120621 111330
" />
<path d="M121135 111872
L121135 111558
L121107 111501
L121050 111472
L120935 111472
L120878 111501
" />
<path d="M121135 111844
L121078 111872
L120935 111872
L120878 111844
L120850 111787
L120850 111730
L120878 111672
L120935 111644
L121078 111644
L121135 111615
" />
<path d="M121678 111872
L121678 111272
" />
<path d="M121678 111844
L121621 111872
L121507 111872
L121450 111844
L121421 111815
L121392 111758
L121392 111587
L121421 111530
L121450 111501
L121507 111472
L121621 111472
L121678 111501
" />
<path d="M122421 111558
L122621 111558
" />
<path d="M122707 111872
L122421 111872
L122421 111272
L122707 111272
" />
<path d="M122964 111815
L122992 111844
L122964 111872
L122935 111844
L122964 111815
L122964 111872
" />
<path d="M123249 111872
L123249 111272
L123392 111272
L123478 111301
L123535 111358
L123564 111415
L123592 111530
L123592 111615
L123564 111730
L123535 111787
L123478 111844
L123392 111872
L123249 111872
" />
<path d="M123849 111815
L123878 111844
L123849 111872
L123821 111844
L123849 111815
L123849 111872
" />
<path d="M124107 111701
L124392 111701
" />
<path d="M124049 111872
L124249 111272
L124449 111872
" />
<path d="M124649 111815
L124678 111844
L124649 111872
L124621 111844
L124649 111815
L124649 111872
" />
<path d="M152942 110672
L152778 110387
" />
<path d="M152600 110672
L152675 110072
L152903 110072
L152957 110101
L152982 110130
L153003 110187
L152992 110272
L152957 110330
L152925 110358
L152864 110387
L152635 110387
" />
<path d="M153432 110644
L153371 110672
L153257 110672
L153203 110644
L153182 110587
L153210 110358
L153246 110301
L153307 110272
L153421 110272
L153475 110301
L153496 110358
L153489 110415
L153196 110472
" />
<path d="M153707 110272
L153800 110672
L153992 110272
" />
<path d="M154178 110615
L154203 110644
L154171 110672
L154146 110644
L154178 110615
L154171 110672
" />
<path d="M154217 110301
L154242 110330
L154210 110358
L154185 110330
L154217 110301
L154210 110358
" />
<path d="M119364 110644
L119450 110672
L119592 110672
L119650 110644
L119678 110615
L119707 110558
L119707 110501
L119678 110444
L119650 110415
L119592 110387
L119478 110358
L119421 110330
L119392 110301
L119364 110244
L119364 110187
L119392 110130
L119421 110101
L119478 110072
L119621 110072
L119707 110101
" />
<path d="M119964 110672
L119964 110272
" />
<path d="M119964 110072
L119935 110101
L119964 110130
L119992 110101
L119964 110072
L119964 110130
" />
<path d="M120192 110272
L120507 110272
L120192 110672
L120507 110672
" />
<path d="M120964 110644
L120907 110672
L120792 110672
L120735 110644
L120707 110587
L120707 110358
L120735 110301
L120792 110272
L120907 110272
L120964 110301
L120992 110358
L120992 110415
L120707 110472
" />
<path d="M121250 110615
L121278 110644
L121250 110672
L121221 110644
L121250 110615
L121250 110672
" />
<path d="M121250 110301
L121278 110330
L121250 110358
L121221 110330
L121250 110301
L121250 110358
" />
<path d="M121964 110501
L122250 110501
" />
<path d="M121907 110672
L122107 110072
L122307 110672
" />
<path d="M122450 110072
L122821 110072
L122621 110301
L122707 110301
L122764 110330
L122792 110358
L122821 110415
L122821 110558
L122792 110615
L122764 110644
L122707 110672
L122535 110672
L122478 110644
L122450 110615
" />
<path d="M152592 111872
L152592 111272
" />
<path d="M153135 111872
L153135 111272
" />
<path d="M153135 111844
L153078 111872
L152964 111872
L152907 111844
L152878 111815
L152850 111758
L152850 111587
L152878 111530
L152907 111501
L152964 111472
L153078 111472
L153135 111501
" />
<path d="M153421 111815
L153450 111844
L153421 111872
L153392 111844
L153421 111815
L153421 111872
" />
<path d="M153421 111501
L153450 111530
L153421 111558
L153392 111530
L153421 111501
L153421 111558
" />
<path d="M154478 111872
L154135 111872
" />
<path d="M154307 111872
L154307 111272
L154249 111358
L154192 111415
L154135 111444
" />
<path d="M155164 111244
L154650 112015
" />
<path d="M155678 111872
L155335 111872
" />
<path d="M155507 111872
L155507 111272
L155449 111358
L155392 111415
L155335 111444
" />
<path d="M119389 108872
L119732 108872
" />
<path d="M119485 109472
L119560 108872
" />
<path d="M119857 109472
L119907 109072
" />
<path d="M119932 108872
L119900 108901
L119925 108930
L119957 108901
L119932 108872
L119925 108930
" />
<path d="M120107 109072
L120335 109072
" />
<path d="M120217 108872
L120153 109387
L120175 109444
L120228 109472
L120285 109472
" />
<path d="M120571 109472
L120517 109444
L120496 109387
L120560 108872
" />
<path d="M121032 109444
L120971 109472
L120857 109472
L120803 109444
L120782 109387
L120810 109158
L120846 109101
L120907 109072
L121021 109072
L121075 109101
L121096 109158
L121089 109215
L120796 109272
" />
<path d="M121321 109415
L121346 109444
L121314 109472
L121289 109444
L121321 109415
L121314 109472
" />
<path d="M121360 109101
L121385 109130
L121353 109158
L121328 109130
L121360 109101
L121353 109158
" />
<path d="M119592 106758
L119392 106758
" />
<path d="M119392 107072
L119392 106472
L119678 106472
" />
<path d="M119907 107072
L119907 106672
" />
<path d="M119907 106472
L119878 106501
L119907 106530
L119935 106501
L119907 106472
L119907 106530
" />
<path d="M120278 107072
L120221 107044
L120192 106987
L120192 106472
" />
<path d="M120735 107044
L120678 107072
L120564 107072
L120507 107044
L120478 106987
L120478 106758
L120507 106701
L120564 106672
L120678 106672
L120735 106701
L120764 106758
L120764 106815
L120478 106872
" />
<path d="M121021 107015
L121050 107044
L121021 107072
L120992 107044
L121021 107015
L121021 107072
" />
<path d="M121021 106701
L121050 106730
L121021 106758
L120992 106730
L121021 106701
L121021 106758
" />
<path d="M122021 107044
L121964 107072
L121850 107072
L121792 107044
L121764 107015
L121735 106958
L121735 106787
L121764 106730
L121792 106701
L121850 106672
L121964 106672
L122021 106701
" />
<path d="M122364 107072
L122307 107044
L122278 106987
L122278 106472
" />
<path d="M122678 107072
L122621 107044
L122592 107015
L122564 106958
L122564 106787
L122592 106730
L122621 106701
L122678 106672
L122764 106672
L122821 106701
L122850 106730
L122878 106787
L122878 106958
L122850 107015
L122821 107044
L122764 107072
L122678 107072
" />
<path d="M123392 107044
L123335 107072
L123221 107072
L123164 107044
L123135 107015
L123107 106958
L123107 106787
L123135 106730
L123164 106701
L123221 106672
L123335 106672
L123392 106701
" />
<path d="M123650 107072
L123650 106472
" />
<path d="M123707 106844
L123878 107072
" />
<path d="M123878 106672
L123650 106901
" />
<path d="M124135 107015
L124164 107044
L124135 107072
L124107 107044
L124135 107015
L124135 107072
" />
<path d="M124421 107072
L124421 106472
" />
<path d="M124478 106844
L124650 107072
" />
<path d="M124650 106672
L124421 106901
" />
<path d="M124907 107072
L124907 106672
" />
<path d="M124907 106472
L124878 106501
L124907 106530
L124935 106501
L124907 106472
L124907 106530
" />
<path d="M125450 107044
L125392 107072
L125278 107072
L125221 107044
L125192 107015
L125164 106958
L125164 106787
L125192 106730
L125221 106701
L125278 106672
L125392 106672
L125450 106701
" />
<path d="M125964 107072
L125964 106758
L125935 106701
L125878 106672
L125764 106672
L125707 106701
" />
<path d="M125964 107044
L125907 107072
L125764 107072
L125707 107044
L125678 106987
L125678 106930
L125707 106872
L125764 106844
L125907 106844
L125964 106815
" />
<path d="M126507 107072
L126507 106472
" />
<path d="M126507 107044
L126450 107072
L126335 107072
L126278 107044
L126250 107015
L126221 106958
L126221 106787
L126250 106730
L126278 106701
L126335 106672
L126450 106672
L126507 106701
" />
<path d="M126650 107130
L127107 107130
" />
<path d="M127250 106672
L127250 107272
" />
<path d="M127250 106701
L127307 106672
L127421 106672
L127478 106701
L127507 106730
L127535 106787
L127535 106958
L127507 107015
L127478 107044
L127421 107072
L127307 107072
L127250 107044
" />
<path d="M128050 107044
L127992 107072
L127878 107072
L127821 107044
L127792 107015
L127764 106958
L127764 106787
L127792 106730
L127821 106701
L127878 106672
L127992 106672
L128050 106701
" />
<path d="M128307 107072
L128307 106472
" />
<path d="M128307 106701
L128364 106672
L128478 106672
L128535 106701
L128564 106730
L128592 106787
L128592 106958
L128564 107015
L128535 107044
L128478 107072
L128364 107072
L128307 107044
" />
<path d="M119364 108244
L119450 108272
L119592 108272
L119650 108244
L119678 108215
L119707 108158
L119707 108101
L119678 108044
L119650 108015
L119592 107987
L119478 107958
L119421 107930
L119392 107901
L119364 107844
L119364 107787
L119392 107730
L119421 107701
L119478 107672
L119621 107672
L119707 107701
" />
<path d="M119964 108272
L119964 107672
" />
<path d="M120221 108272
L120221 107958
L120192 107901
L120135 107872
L120050 107872
L119992 107901
L119964 107930
" />
<path d="M120735 108244
L120678 108272
L120564 108272
L120507 108244
L120478 108187
L120478 107958
L120507 107901
L120564 107872
L120678 107872
L120735 107901
L120764 107958
L120764 108015
L120478 108072
" />
<path d="M121250 108244
L121192 108272
L121078 108272
L121021 108244
L120992 108187
L120992 107958
L121021 107901
L121078 107872
L121192 107872
L121250 107901
L121278 107958
L121278 108015
L120992 108072
" />
<path d="M121450 107872
L121678 107872
" />
<path d="M121535 107672
L121535 108187
L121564 108244
L121621 108272
L121678 108272
" />
<path d="M121878 108215
L121907 108244
L121878 108272
L121850 108244
L121878 108215
L121878 108272
" />
<path d="M121878 107901
L121907 107930
L121878 107958
L121850 107930
L121878 107901
L121878 107958
" />
<path d="M118650 106230
L118650 112230
" />
<path d="M118650 106230
L160650 106230
" />
<path d="M118650 106230
L160650 106230
" />
<path d="M118650 108630
L160650 108630
" />
<path d="M151850 109830
L151850 112230
" />
<path d="M118650 111030
L160650 111030
" />
<path d="M118650 109830
L160650 109830
" />
<path d="M125250 109830
L125250 111030
" />
</g>
<g style="fill:#9F009F; fill-opacity:0.0; 
stroke:#9F009F; stroke-width:118.11; stroke-opacity:1; 
stroke-linecap:round; stroke-linejoin:round;">
<path d="M21739 26424
L21148 26424
" />
<path d="M21739 26761
L21401 26508
" />
<path d="M21148 26761
L21485 26424
" />
<path d="M21148 26958
L21739 27098
L21317 27211
L21739 27323
L21148 27464
" />
<path d="M21570 27661
L21570 27942
" />
<path d="M21739 27605
L21148 27802
L21739 27998
" />
<path d="M21514 28195
L21514 28645
" />
<path d="M21204 28898
L21176 28926
L21148 28983
L21148 29123
L21176 29179
L21204 29208
L21260 29236
L21317 29236
L21401 29208
L21739 28870
L21739 29236
" />
<path d="M21204 29461
L21176 29489
L21148 29545
L21148 29686
L21176 29742
L21204 29770
L21260 29798
L21317 29798
L21401 29770
L21739 29433
L21739 29798
" />
<path d="M21739 30361
L21739 30023
" />
<path d="M21739 30192
L21148 30192
L21232 30136
L21289 30079
L21317 30023
" />
<path d="M21148 30557
L21739 30951
" />
<path d="M21148 30951
L21739 30557
" />
<path d="M21739 31457
L21739 31176
L21148 31176
" />
<path d="M21429 31851
L21457 31935
L21485 31964
L21542 31992
L21626 31992
L21682 31964
L21710 31935
L21739 31879
L21739 31654
L21148 31654
L21148 31851
L21176 31907
L21204 31935
L21260 31964
L21317 31964
L21373 31935
L21401 31907
L21429 31851
L21429 31654
" />
<path d="M21429 32892
L21457 32976
L21485 33004
L21542 33032
L21626 33032
L21682 33004
L21710 32976
L21739 32920
L21739 32695
L21148 32695
L21148 32892
L21176 32948
L21204 32976
L21260 33004
L21317 33004
L21373 32976
L21401 32948
L21429 32892
L21429 32695
" />
<path d="M21739 33538
L21429 33538
L21373 33510
L21345 33454
L21345 33341
L21373 33285
" />
<path d="M21710 33538
L21739 33482
L21739 33341
L21710 33285
L21654 33257
L21598 33257
L21542 33285
L21514 33341
L21514 33482
L21485 33538
" />
<path d="M21710 34073
L21739 34016
L21739 33904
L21710 33848
L21682 33820
L21626 33791
L21457 33791
L21401 33820
L21373 33848
L21345 33904
L21345 34016
L21373 34073
" />
<path d="M21739 34326
L21148 34326
" />
<path d="M21514 34382
L21739 34551
" />
<path d="M21345 34551
L21570 34326
" />
<path d="M21345 34804
L21935 34804
" />
<path d="M21373 34804
L21345 34860
L21345 34973
L21373 35029
L21401 35057
L21457 35085
L21626 35085
L21682 35057
L21710 35029
L21739 34973
L21739 34860
L21710 34804
" />
<path d="M21739 35591
L21429 35591
L21373 35563
L21345 35507
L21345 35394
L21373 35338
" />
<path d="M21710 35591
L21739 35535
L21739 35394
L21710 35338
L21654 35310
L21598 35310
L21542 35338
L21514 35394
L21514 35535
L21485 35591
" />
<path d="M21710 36125
L21739 36069
L21739 35957
L21710 35901
L21682 35872
L21626 35844
L21457 35844
L21401 35872
L21373 35901
L21345 35957
L21345 36069
L21373 36125
" />
<path d="M21739 36379
L21148 36379
" />
<path d="M21514 36435
L21739 36604
" />
<path d="M21345 36604
L21570 36379
" />
<path d="M22627 26255
L22655 26227
L22683 26142
L22683 26086
L22655 26002
L22599 25946
L22543 25917
L22430 25889
L22346 25889
L22233 25917
L22177 25946
L22121 26002
L22093 26086
L22093 26142
L22121 26227
L22149 26255
" />
<path d="M22627 26845
L22655 26817
L22683 26733
L22683 26677
L22655 26592
L22599 26536
L22543 26508
L22430 26480
L22346 26480
L22233 26508
L22177 26536
L22121 26592
L22093 26677
L22093 26733
L22121 26817
L22149 26845
" />
<path d="M22093 27211
L22093 27267
L22121 27323
L22149 27352
L22205 27380
L22318 27408
L22458 27408
L22571 27380
L22627 27352
L22655 27323
L22683 27267
L22683 27211
L22655 27155
L22627 27127
L22571 27098
L22458 27070
L22318 27070
L22205 27098
L22149 27127
L22121 27155
L22093 27211
" />
<path d="M22683 28111
L22093 28111
L22515 28308
L22093 28505
L22683 28505
" />
<path d="M22683 29039
L22374 29039
L22318 29011
L22290 28955
L22290 28842
L22318 28786
" />
<path d="M22655 29039
L22683 28983
L22683 28842
L22655 28786
L22599 28758
L22543 28758
L22487 28786
L22458 28842
L22458 28983
L22430 29039
" />
<path d="M22290 29236
L22290 29461
" />
<path d="M22093 29320
L22599 29320
L22655 29348
L22683 29404
L22683 29461
" />
<path d="M22290 29573
L22290 29798
" />
<path d="M22093 29658
L22599 29658
L22655 29686
L22683 29742
L22683 29798
" />
<path d="M22683 30445
L22093 30445
L22515 30642
L22093 30839
L22683 30839
" />
<path d="M22683 31373
L22374 31373
L22318 31345
L22290 31289
L22290 31176
L22318 31120
" />
<path d="M22655 31373
L22683 31317
L22683 31176
L22655 31120
L22599 31092
L22543 31092
L22487 31120
L22458 31176
L22458 31317
L22430 31373
" />
<path d="M22655 31626
L22683 31682
L22683 31795
L22655 31851
L22599 31879
L22571 31879
L22515 31851
L22487 31795
L22487 31710
L22458 31654
L22402 31626
L22374 31626
L22318 31654
L22290 31710
L22290 31795
L22318 31851
" />
<path d="M22290 32048
L22290 32273
" />
<path d="M22093 32132
L22599 32132
L22655 32160
L22683 32217
L22683 32273
" />
<path d="M22683 32470
L22290 32470
" />
<path d="M22402 32470
L22346 32498
L22318 32526
L22290 32582
L22290 32638
" />
<path d="M22683 33088
L22374 33088
L22318 33060
L22290 33004
L22290 32892
L22318 32835
" />
<path d="M22655 33088
L22683 33032
L22683 32892
L22655 32835
L22599 32807
L22543 32807
L22487 32835
L22458 32892
L22458 33032
L22430 33088
" />
<path d="M22655 33623
L22683 33566
L22683 33454
L22655 33398
L22627 33370
L22571 33341
L22402 33341
L22346 33370
L22318 33398
L22290 33454
L22290 33566
L22318 33623
" />
<path d="M22655 34129
L22683 34073
L22683 33960
L22655 33904
L22627 33876
L22571 33848
L22402 33848
L22346 33876
L22318 33904
L22290 33960
L22290 34073
L22318 34129
" />
<path d="M22683 34382
L22290 34382
" />
<path d="M22093 34382
L22121 34354
L22149 34382
L22121 34410
L22093 34382
L22149 34382
" />
<path d="M22149 35085
L22121 35113
L22093 35169
L22093 35310
L22121 35366
L22149 35394
L22205 35422
L22262 35422
L22346 35394
L22683 35057
L22683 35422
" />
<path d="M22093 35788
L22093 35844
L22121 35901
L22149 35929
L22205 35957
L22318 35985
L22458 35985
L22571 35957
L22627 35929
L22655 35901
L22683 35844
L22683 35788
L22655 35732
L22627 35704
L22571 35676
L22458 35647
L22318 35647
L22205 35676
L22149 35704
L22121 35732
L22093 35788
" />
<path d="M22683 36547
L22683 36210
" />
<path d="M22683 36379
L22093 36379
L22177 36322
L22233 36266
L22262 36210
" />
<path d="M22290 37053
L22683 37053
" />
<path d="M22065 36913
L22487 36772
L22487 37138
" />
<path d="M37217 41929
L37132 41957
L37104 41985
L37076 42042
L37076 42126
L37104 42182
L37132 42210
L37188 42239
L37413 42239
L37413 41648
L37217 41648
L37160 41676
L37132 41704
L37104 41760
L37104 41817
L37132 41873
L37160 41901
L37217 41929
L37413 41929
" />
<path d="M36570 42239
L36570 41929
L36598 41873
L36654 41845
L36767 41845
L36823 41873
" />
<path d="M36570 42210
L36626 42239
L36767 42239
L36823 42210
L36851 42154
L36851 42098
L36823 42042
L36767 42014
L36626 42014
L36570 41985
" />
<path d="M36035 42210
L36092 42239
L36204 42239
L36260 42210
L36289 42182
L36317 42126
L36317 41957
L36289 41901
L36260 41873
L36204 41845
L36092 41845
L36035 41873
" />
<path d="M35782 42239
L35782 41648
" />
<path d="M35726 42014
L35557 42239
" />
<path d="M35557 41845
L35782 42070
" />
</g>
<g style="fill:#009F9F; fill-opacity:0.0; 
stroke:#009F9F; stroke-width:118.11; stroke-opacity:1; 
stroke-linecap:round; stroke-linejoin:round;">
<path d="M19698 41929
L19501 41929
" />
<path d="M19501 42239
L19501 41648
L19782 41648
" />
<path d="M20007 42239
L20007 41845
" />
<path d="M20007 41957
L20035 41901
L20064 41873
L20120 41845
L20176 41845
" />
<path d="M20457 42239
L20401 42210
L20373 42182
L20345 42126
L20345 41957
L20373 41901
L20401 41873
L20457 41845
L20542 41845
L20598 41873
L20626 41901
L20654 41957
L20654 42126
L20626 42182
L20598 42210
L20542 42239
L20457 42239
" />
<path d="M20907 41845
L20907 42239
" />
<path d="M20907 41901
L20935 41873
L20992 41845
L21076 41845
L21132 41873
L21160 41929
L21160 42239
" />
<path d="M21357 41845
L21582 41845
" />
<path d="M21442 41648
L21442 42154
L21470 42210
L21526 42239
L21582 42239
" />
<path d="M21739 36575
L21148 36575
" />
<path d="M21739 36238
L21401 36491
" />
<path d="M21148 36238
L21485 36575
" />
<path d="M21148 36041
L21739 35901
L21317 35788
L21739 35676
L21148 35535
" />
<path d="M21570 35338
L21570 35057
" />
<path d="M21739 35394
L21148 35197
L21739 35001
" />
<path d="M21514 34804
L21514 34354
" />
<path d="M21204 34101
L21176 34073
L21148 34016
L21148 33876
L21176 33820
L21204 33791
L21260 33763
L21317 33763
L21401 33791
L21739 34129
L21739 33763
" />
<path d="M21204 33538
L21176 33510
L21148 33454
L21148 33313
L21176 33257
L21204 33229
L21260 33201
L21317 33201
L21401 33229
L21739 33566
L21739 33201
" />
<path d="M21739 32638
L21739 32976
" />
<path d="M21739 32807
L21148 32807
L21232 32863
L21289 32920
L21317 32976
" />
<path d="M21148 32442
L21739 32048
" />
<path d="M21148 32048
L21739 32442
" />
<path d="M21739 31542
L21739 31823
L21148 31823
" />
<path d="M21429 31148
L21457 31064
L21485 31035
L21542 31007
L21626 31007
L21682 31035
L21710 31064
L21739 31120
L21739 31345
L21148 31345
L21148 31148
L21176 31092
L21204 31064
L21260 31035
L21317 31035
L21373 31064
L21401 31092
L21429 31148
L21429 31345
" />
<path d="M21429 30107
L21457 30023
L21485 29995
L21542 29967
L21626 29967
L21682 29995
L21710 30023
L21739 30079
L21739 30304
L21148 30304
L21148 30107
L21176 30051
L21204 30023
L21260 29995
L21317 29995
L21373 30023
L21401 30051
L21429 30107
L21429 30304
" />
<path d="M21739 29461
L21429 29461
L21373 29489
L21345 29545
L21345 29658
L21373 29714
" />
<path d="M21710 29461
L21739 29517
L21739 29658
L21710 29714
L21654 29742
L21598 29742
L21542 29714
L21514 29658
L21514 29517
L21485 29461
" />
<path d="M21710 28926
L21739 28983
L21739 29095
L21710 29151
L21682 29179
L21626 29208
L21457 29208
L21401 29179
L21373 29151
L21345 29095
L21345 28983
L21373 28926
" />
<path d="M21739 28673
L21148 28673
" />
<path d="M21514 28617
L21739 28448
" />
<path d="M21345 28448
L21570 28673
" />
<path d="M21345 28195
L21935 28195
" />
<path d="M21373 28195
L21345 28139
L21345 28026
L21373 27970
L21401 27942
L21457 27914
L21626 27914
L21682 27942
L21710 27970
L21739 28026
L21739 28139
L21710 28195
" />
<path d="M21739 27408
L21429 27408
L21373 27436
L21345 27492
L21345 27605
L21373 27661
" />
<path d="M21710 27408
L21739 27464
L21739 27605
L21710 27661
L21654 27689
L21598 27689
L21542 27661
L21514 27605
L21514 27464
L21485 27408
" />
<path d="M21710 26874
L21739 26930
L21739 27042
L21710 27098
L21682 27127
L21626 27155
L21457 27155
L21401 27127
L21373 27098
L21345 27042
L21345 26930
L21373 26874
" />
<path d="M21739 26620
L21148 26620
" />
<path d="M21514 26564
L21739 26395
" />
<path d="M21345 26395
L21570 26620
" />
<path d="M22627 36744
L22655 36772
L22683 36857
L22683 36913
L22655 36997
L22599 37053
L22543 37082
L22430 37110
L22346 37110
L22233 37082
L22177 37053
L22121 36997
L22093 36913
L22093 36857
L22121 36772
L22149 36744
" />
<path d="M22627 36154
L22655 36182
L22683 36266
L22683 36322
L22655 36407
L22599 36463
L22543 36491
L22430 36519
L22346 36519
L22233 36491
L22177 36463
L22121 36407
L22093 36322
L22093 36266
L22121 36182
L22149 36154
" />
<path d="M22093 35788
L22093 35732
L22121 35676
L22149 35647
L22205 35619
L22318 35591
L22458 35591
L22571 35619
L22627 35647
L22655 35676
L22683 35732
L22683 35788
L22655 35844
L22627 35872
L22571 35901
L22458 35929
L22318 35929
L22205 35901
L22149 35872
L22121 35844
L22093 35788
" />
<path d="M22683 34888
L22093 34888
L22515 34691
L22093 34494
L22683 34494
" />
<path d="M22683 33960
L22374 33960
L22318 33988
L22290 34044
L22290 34157
L22318 34213
" />
<path d="M22655 33960
L22683 34016
L22683 34157
L22655 34213
L22599 34241
L22543 34241
L22487 34213
L22458 34157
L22458 34016
L22430 33960
" />
<path d="M22290 33763
L22290 33538
" />
<path d="M22093 33679
L22599 33679
L22655 33651
L22683 33595
L22683 33538
" />
<path d="M22290 33426
L22290 33201
" />
<path d="M22093 33341
L22599 33341
L22655 33313
L22683 33257
L22683 33201
" />
<path d="M22683 32554
L22093 32554
L22515 32357
L22093 32160
L22683 32160
" />
<path d="M22683 31626
L22374 31626
L22318 31654
L22290 31710
L22290 31823
L22318 31879
" />
<path d="M22655 31626
L22683 31682
L22683 31823
L22655 31879
L22599 31907
L22543 31907
L22487 31879
L22458 31823
L22458 31682
L22430 31626
" />
<path d="M22655 31373
L22683 31317
L22683 31204
L22655 31148
L22599 31120
L22571 31120
L22515 31148
L22487 31204
L22487 31289
L22458 31345
L22402 31373
L22374 31373
L22318 31345
L22290 31289
L22290 31204
L22318 31148
" />
<path d="M22290 30951
L22290 30726
" />
<path d="M22093 30867
L22599 30867
L22655 30839
L22683 30782
L22683 30726
" />
<path d="M22683 30529
L22290 30529
" />
<path d="M22402 30529
L22346 30501
L22318 30473
L22290 30417
L22290 30361
" />
<path d="M22683 29911
L22374 29911
L22318 29939
L22290 29995
L22290 30107
L22318 30164
" />
<path d="M22655 29911
L22683 29967
L22683 30107
L22655 30164
L22599 30192
L22543 30192
L22487 30164
L22458 30107
L22458 29967
L22430 29911
" />
<path d="M22655 29376
L22683 29433
L22683 29545
L22655 29601
L22627 29629
L22571 29658
L22402 29658
L22346 29629
L22318 29601
L22290 29545
L22290 29433
L22318 29376
" />
<path d="M22655 28870
L22683 28926
L22683 29039
L22655 29095
L22627 29123
L22571 29151
L22402 29151
L22346 29123
L22318 29095
L22290 29039
L22290 28926
L22318 28870
" />
<path d="M22683 28617
L22290 28617
" />
<path d="M22093 28617
L22121 28645
L22149 28617
L22121 28589
L22093 28617
L22149 28617
" />
<path d="M22149 27914
L22121 27886
L22093 27830
L22093 27689
L22121 27633
L22149 27605
L22205 27577
L22262 27577
L22346 27605
L22683 27942
L22683 27577
" />
<path d="M22093 27211
L22093 27155
L22121 27098
L22149 27070
L22205 27042
L22318 27014
L22458 27014
L22571 27042
L22627 27070
L22655 27098
L22683 27155
L22683 27211
L22655 27267
L22627 27295
L22571 27323
L22458 27352
L22318 27352
L22205 27323
L22149 27295
L22121 27267
L22093 27211
" />
<path d="M22683 26452
L22683 26789
" />
<path d="M22683 26620
L22093 26620
L22177 26677
L22233 26733
L22262 26789
" />
<path d="M22290 25946
L22683 25946
" />
<path d="M22065 26086
L22487 26227
L22487 25861
" />
</g>
<g style="fill:#FFFF00; fill-opacity:0.0; 
stroke:#FFFF00; stroke-width:39.3701; stroke-opacity:1; 
stroke-linecap:round; stroke-linejoin:round;">
<path d="M38000 15000
L19000 15000
" />
<path d="M38000 43000
L38000 15000
" />
<path d="M19000 43000
L38000 43000
" />
<path d="M19000 15000
L19000 43000
" />
</g>
<g style="fill:#9F009F; fill-opacity:0.0; 
stroke:#9F009F; stroke-width:120; stroke-opacity:1; 
stroke-linecap:round; stroke-linejoin:round;">
</g>
<g style="fill:#9F009F; fill-opacity:0.0; 
stroke:#9F009F; stroke-width:107; stroke-opacity:1; 
stroke-linecap:round; stroke-linejoin:round;">
<path d="M36775 17684
L36094 17684
L36094 17847
L36127 17887
L36159 17908
L36224 17928
L36321 17928
L36386 17908
L36418 17887
L36451 17847
L36451 17684
" />
<path d="M36159 18091
L36127 18112
L36094 18152
L36094 18254
L36127 18295
L36159 18315
L36224 18336
L36289 18336
L36386 18315
L36775 18071
L36775 18336
" />
</g>
<g style="fill:#9F009F; fill-opacity:0.0; 
stroke:#9F009F; stroke-width:120; stroke-opacity:1; 
stroke-linecap:round; stroke-linejoin:round;">
</g>
<g style="fill:#9F009F; fill-opacity:0.0; 
stroke:#9F009F; stroke-width:100; stroke-opacity:1; 
stroke-linecap:round; stroke-linejoin:round;">
<path d="M36685 21390
L36714 21371
L36742 21314
L36742 21276
L36714 21219
L36657 21180
L36600 21161
L36485 21142
L36400 21142
L36285 21161
L36228 21180
L36171 21219
L36142 21276
L36142 21314
L36171 21371
L36200 21390
" />
<path d="M36142 21638
L36142 21714
L36171 21752
L36228 21790
L36342 21809
L36542 21809
L36657 21790
L36714 21752
L36742 21714
L36742 21638
L36714 21600
L36657 21561
L36542 21542
L36342 21542
L36228 21561
L36171 21600
L36142 21638
" />
<path d="M36742 21980
L36142 21980
L36742 22209
L36142 22209
" />
<path d="M36742 22400
L36142 22400
L36742 22628
L36142 22628
" />
<path d="M36800 22723
L36800 23028
" />
<path d="M36142 23200
L36142 23238
L36171 23276
L36200 23295
L36257 23314
L36371 23333
L36514 23333
L36628 23314
L36685 23295
L36714 23276
L36742 23238
L36742 23200
L36714 23161
L36685 23142
L36628 23123
L36514 23104
L36371 23104
L36257 23123
L36200 23142
L36171 23161
L36142 23200
" />
<path d="M36742 23714
L36742 23485
" />
<path d="M36742 23600
L36142 23600
L36228 23561
L36285 23523
L36314 23485
" />
<path d="M36142 23847
L36742 24114
" />
<path d="M36142 24114
L36742 23847
" />
<path d="M36742 24476
L36742 24247
" />
<path d="M36742 24361
L36142 24361
L36228 24323
L36285 24285
L36314 24247
" />
<path d="M36142 24723
L36142 24761
L36171 24800
L36200 24819
L36257 24838
L36371 24857
L36514 24857
L36628 24838
L36685 24819
L36714 24800
L36742 24761
L36742 24723
L36714 24685
L36685 24666
L36628 24647
L36514 24628
L36371 24628
L36257 24647
L36200 24666
L36171 24685
L36142 24723
" />
</g>
<g style="fill:#9F009F; fill-opacity:0.0; 
stroke:#9F009F; stroke-width:120; stroke-opacity:1; 
stroke-linecap:round; stroke-linejoin:round;">
</g>
<g style="fill:#9F009F; fill-opacity:0.0; 
stroke:#9F009F; stroke-width:107; stroke-opacity:1; 
stroke-linecap:round; stroke-linejoin:round;">
<path d="M18775 17684
L18094 17684
L18094 17847
L18127 17887
L18159 17908
L18224 17928
L18321 17928
L18386 17908
L18418 17887
L18451 17847
L18451 17684
" />
<path d="M18775 18336
L18775 18091
" />
<path d="M18775 18214
L18094 18214
L18191 18173
L18256 18132
L18289 18091
" />
</g>
<g style="fill:#9F009F; fill-opacity:0.0; 
stroke:#9F009F; stroke-width:120; stroke-opacity:1; 
stroke-linecap:round; stroke-linejoin:round;">
</g>
<g style="fill:#9F009F; fill-opacity:0.0; 
stroke:#9F009F; stroke-width:100; stroke-opacity:1; 
stroke-linecap:round; stroke-linejoin:round;">
<path d="M18685 21390
L18714 21371
L18742 21314
L18742 21276
L18714 21219
L18657 21180
L18600 21161
L18485 21142
L18400 21142
L18285 21161
L18228 21180
L18171 21219
L18142 21276
L18142 21314
L18171 21371
L18200 21390
" />
<path d="M18142 21638
L18142 21714
L18171 21752
L18228 21790
L18342 21809
L18542 21809
L18657 21790
L18714 21752
L18742 21714
L18742 21638
L18714 21600
L18657 21561
L18542 21542
L18342 21542
L18228 21561
L18171 21600
L18142 21638
" />
<path d="M18742 21980
L18142 21980
L18742 22209
L18142 22209
" />
<path d="M18742 22400
L18142 22400
L18742 22628
L18142 22628
" />
<path d="M18800 22723
L18800 23028
" />
<path d="M18142 23200
L18142 23238
L18171 23276
L18200 23295
L18257 23314
L18371 23333
L18514 23333
L18628 23314
L18685 23295
L18714 23276
L18742 23238
L18742 23200
L18714 23161
L18685 23142
L18628 23123
L18514 23104
L18371 23104
L18257 23123
L18200 23142
L18171 23161
L18142 23200
" />
<path d="M18742 23714
L18742 23485
" />
<path d="M18742 23600
L18142 23600
L18228 23561
L18285 23523
L18314 23485
" />
<path d="M18142 23847
L18742 24114
" />
<path d="M18142 24114
L18742 23847
" />
<path d="M18742 24476
L18742 24247
" />
<path d="M18742 24361
L18142 24361
L18228 24323
L18285 24285
L18314 24247
" />
<path d="M18142 24723
L18142 24761
L18171 24800
L18200 24819
L18257 24838
L18371 24857
L18514 24857
L18628 24838
L18685 24819
L18714 24800
L18742 24761
L18742 24723
L18714 24685
L18685 24666
L18628 24647
L18514 24628
L18371 24628
L18257 24647
L18200 24666
L18171 24685
L18142 24723
" />
</g>
<g style="fill:#9F009F; fill-opacity:0.0; 
stroke:#9F009F; stroke-width:120; stroke-opacity:1; 
stroke-linecap:round; stroke-linejoin:round;">
</g>
<g style="fill:#9F009F; fill-opacity:0.0; 
stroke:#9F009F; stroke-width:112.5; stroke-opacity:1; 
stroke-linecap:round; stroke-linejoin:round;">
<path d="M28142 32657
L28628 32657
L28685 32678
L28714 32700
L28742 32742
L28742 32828
L28714 32871
L28685 32892
L28628 32914
L28142 32914
" />
<path d="M28742 33364
L28742 33107
" />
<path d="M28742 33235
L28142 33235
L28228 33192
L28285 33150
L28314 33107
" />
</g>
<g style="fill:#9F009F; fill-opacity:0.0; 
stroke:#9F009F; stroke-width:120; stroke-opacity:1; 
stroke-linecap:round; stroke-linejoin:round;">
</g>
<g style="fill:#9F009F; fill-opacity:0.0; 
stroke:#9F009F; stroke-width:112.5; stroke-opacity:1; 
stroke-linecap:round; stroke-linejoin:round;">
<path d="M28142 22200
L28142 22457
" />
<path d="M28742 22328
L28142 22328
" />
<path d="M28742 22821
L28742 22607
L28142 22607
" />
<path d="M28685 23228
L28714 23207
L28742 23142
L28742 23100
L28714 23035
L28657 22992
L28600 22971
L28485 22950
L28400 22950
L28285 22971
L28228 22992
L28171 23035
L28142 23100
L28142 23142
L28171 23207
L28200 23228
" />
<path d="M28142 23635
L28142 23421
L28428 23400
L28400 23421
L28371 23464
L28371 23571
L28400 23614
L28428 23635
L28485 23657
L28628 23657
L28685 23635
L28714 23614
L28742 23571
L28742 23464
L28714 23421
L28685 23400
" />
<path d="M28742 23871
L28742 23957
L28714 24000
L28685 24021
L28600 24064
L28485 24085
L28257 24085
L28200 24064
L28171 24042
L28142 24000
L28142 23914
L28171 23871
L28200 23850
L28257 23828
L28400 23828
L28457 23850
L28485 23871
L28514 23914
L28514 24000
L28485 24042
L28457 24064
L28400 24085
" />
<path d="M28342 24471
L28742 24471
" />
<path d="M28114 24364
L28542 24257
L28542 24535
" />
<path d="M28142 24792
L28142 24835
L28171 24878
L28200 24900
L28257 24921
L28371 24942
L28514 24942
L28628 24921
L28685 24900
L28714 24878
L28742 24835
L28742 24792
L28714 24750
L28685 24728
L28628 24707
L28514 24685
L28371 24685
L28257 24707
L28200 24728
L28171 24750
L28142 24792
" />
<path d="M28742 25135
L28142 25135
L28742 25392
L28142 25392
" />
<path d="M28142 25542
L28142 25800
" />
<path d="M28742 25671
L28142 25671
" />
</g>
<g style="fill:#9F009F; fill-opacity:0.0; 
stroke:#9F009F; stroke-width:120; stroke-opacity:1; 
stroke-linecap:round; stroke-linejoin:round;">
</g>
<g style="fill:#009F9F; fill-opacity:0.0; 
stroke:#009F9F; stroke-width:59.0551; stroke-opacity:1; 
stroke-linecap:round; stroke-linejoin:round;">
<path d="M27881 26046
L28068 26046
" />
<path d="M27843 26159
L27975 25765
L28106 26159
" />
<path d="M28368 25953
L28237 25953
" />
<path d="M28237 26159
L28237 25765
L28425 25765
" />
<path d="M28706 25953
L28574 25953
" />
<path d="M28574 26159
L28574 25765
L28762 25765
" />
<path d="M29118 26159
L28893 26159
" />
<path d="M29006 26159
L29006 25765
L28968 25821
L28931 25859
L28893 25878
" />
<path d="M26672 25659
L26672 25265
" />
<path d="M26897 25659
L26728 25434
" />
<path d="M26897 25265
L26672 25490
" />
<path d="M27028 25265
L27122 25659
L27197 25378
L27272 25659
L27365 25265
" />
<path d="M27497 25546
L27684 25546
" />
<path d="M27459 25659
L27590 25265
L27721 25659
" />
<path d="M27853 25509
L28153 25509
" />
<path d="M28321 25303
L28340 25284
L28378 25265
L28471 25265
L28509 25284
L28528 25303
L28546 25340
L28546 25378
L28528 25434
L28303 25659
L28546 25659
" />
<path d="M28696 25303
L28715 25284
L28753 25265
L28846 25265
L28884 25284
L28903 25303
L28921 25340
L28921 25378
L28903 25434
L28678 25659
L28921 25659
" />
<path d="M29296 25659
L29071 25659
" />
<path d="M29184 25659
L29184 25265
L29146 25321
L29109 25359
L29071 25378
" />
<path d="M29446 25546
L29634 25546
" />
<path d="M29409 25659
L29540 25265
L29671 25659
" />
<path d="M29990 25659
L29802 25659
L29802 25265
" />
<path d="M30252 25453
L30309 25471
L30327 25490
L30346 25528
L30346 25584
L30327 25621
L30309 25640
L30271 25659
L30121 25659
L30121 25265
L30252 25265
L30290 25284
L30309 25303
L30327 25340
L30327 25378
L30309 25415
L30290 25434
L30252 25453
L30121 25453
" />
</g>
<g style="fill:#9F009F; fill-opacity:0.0; 
stroke:#9F009F; stroke-width:80; stroke-opacity:1; 
stroke-linecap:round; stroke-linejoin:round;">
<path d="M33722 27516
L33460 27350
" />
<path d="M33722 27230
L33172 27230
L33172 27421
L33198 27469
L33225 27492
L33277 27516
L33355 27516
L33408 27492
L33434 27469
L33460 27421
L33460 27230
" />
<path d="M33722 27992
L33722 27707
" />
<path d="M33722 27850
L33172 27850
L33251 27802
L33303 27754
L33329 27707
" />
</g>
<g style="fill:#9F009F; fill-opacity:0.0; 
stroke:#9F009F; stroke-width:120; stroke-opacity:1; 
stroke-linecap:round; stroke-linejoin:round;">
<path d="M38000 15500
L37000 15500
" />
<path d="M37000 15500
L37000 25500
" />
<path d="M37000 25500
L38000 25500
" />
<path d="M38000 25500
L38000 15500
" />
<path d="M38000 16500
L37000 16500
" />
<path d="M20000 15500
L19000 15500
" />
<path d="M19000 15500
L19000 25500
" />
<path d="M19000 25500
L20000 25500
" />
<path d="M20000 25500
L20000 15500
" />
<path d="M20000 16500
L19000 16500
" />
</g>
<g style="fill:#9F009F; fill-opacity:0.0; 
stroke:#9F009F; stroke-width:150; stroke-opacity:1; 
stroke-linecap:round; stroke-linejoin:round;">
<path d="M29500 36000
L29500 21000
" />
<path d="M29500 21000
L27500 21000
" />
<path d="M27500 21000
L27500 36000
" />
<path d="M27500 36000
L29500 36000
" />
<path d="M29000 36000
L29000 35500
" />
<path d="M29000 35500
L28000 35500
" />
<path d="M28000 35500
L28000 36000
" />
</g>
<g style="fill:#009F9F; fill-opacity:0.0; 
stroke:#009F9F; stroke-width:59.0551; stroke-opacity:1; 
stroke-linecap:round; stroke-linejoin:round;">
<path d="M19070 15259
L37929 15259
" />
<path d="M37929 15259
L37929 42740
" />
<path d="M37929 42740
L19070 42740
" />
<path d="M19070 42740
L19070 15259
" />
</g>
<g style="fill:#9F009F; fill-opacity:0.0; 
stroke:#9F009F; stroke-width:150; stroke-opacity:1; 
stroke-linecap:round; stroke-linejoin:round;">
<path d="M32500 27500
L32500 28500
" />
<circle cx="32500" cy="27500" r="559.017" /> 
</g>
<g style="fill:#7F7F00; fill-opacity:0.0; 
stroke:#7F7F00; stroke-width:39.3701; stroke-opacity:1; 
stroke-linecap:round; stroke-linejoin:round;">
</g>
<g style="fill:#7F7F00; fill-opacity:1.0; 
stroke:#7F7F00; stroke-width:39.3701; stroke-opacity:1; 
stroke-linecap:round; stroke-linejoin:round;">
<polyline style="fill-rule:evenodd;"
points="37244,15744
37755,15744
37755,16255
37244,16255
37244,15744
" /> 
<circle cx="37500" cy="17000" r="255.315" /> 
<circle cx="37500" cy="18000" r="255.315" /> 
<circle cx="37500" cy="19000" r="255.315" /> 
<circle cx="37500" cy="20000" r="255.315" /> 
<circle cx="37500" cy="21000" r="255.315" /> 
<circle cx="37500" cy="22000" r="255.315" /> 
<circle cx="37500" cy="23000" r="255.315" /> 
<circle cx="37500" cy="24000" r="255.315" /> 
<circle cx="37500" cy="25000" r="255.315" /> 
<polyline style="fill-rule:evenodd;"
points="19244,15744
19755,15744
19755,16255
19244,16255
19244,15744
" /> 
<circle cx="19500" cy="17000" r="255.315" /> 
<circle cx="19500" cy="18000" r="255.315" /> 
<circle cx="19500" cy="19000" r="255.315" /> 
<circle cx="19500" cy="20000" r="255.315" /> 
<circle cx="19500" cy="21000" r="255.315" /> 
<circle cx="19500" cy="22000" r="255.315" /> 
<circle cx="19500" cy="23000" r="255.315" /> 
<circle cx="19500" cy="24000" r="255.315" /> 
<circle cx="19500" cy="25000" r="255.315" /> 
<circle cx="27000" cy="34000" r="255.315" /> 
<circle cx="27000" cy="33000" r="255.315" /> 
<circle cx="27000" cy="32000" r="255.315" /> 
<circle cx="27000" cy="31000" r="255.315" /> 
<circle cx="27000" cy="30000" r="255.315" /> 
<circle cx="27000" cy="29000" r="255.315" /> 
<circle cx="27000" cy="28000" r="255.315" /> 
<circle cx="27000" cy="27000" r="255.315" /> 
<circle cx="27000" cy="26000" r="255.315" /> 
<circle cx="27000" cy="25000" r="255.315" /> 
<circle cx="27000" cy="24000" r="255.315" /> 
<circle cx="27000" cy="23000" r="255.315" /> 
<circle cx="27000" cy="22000" r="255.315" /> 
<polyline style="fill-rule:evenodd;"
points="27255,35255
26744,35255
26744,34744
27255,34744
27255,35255
" /> 
<circle cx="30000" cy="22000" r="255.315" /> 
<circle cx="30000" cy="23000" r="255.315" /> 
<circle cx="30000" cy="24000" r="255.315" /> 
<circle cx="30000" cy="25000" r="255.315" /> 
<circle cx="30000" cy="26000" r="255.315" /> 
<circle cx="30000" cy="27000" r="255.315" /> 
<circle cx="30000" cy="28000" r="255.315" /> 
<circle cx="30000" cy="29000" r="255.315" /> 
<circle cx="30000" cy="30000" r="255.315" /> 
<circle cx="30000" cy="31000" r="255.315" /> 
<circle cx="30000" cy="32000" r="255.315" /> 
<circle cx="30000" cy="33000" r="255.315" /> 
<circle cx="30000" cy="34000" r="255.315" /> 
<circle cx="30000" cy="35000" r="255.315" /> 
<circle cx="27000" cy="40811" r="275.591" /> 
<circle cx="26000" cy="40811" r="275.591" /> 
<circle cx="25000" cy="40811" r="275.591" /> 
<circle cx="24000" cy="40811" r="275.591" /> 
<circle cx="28000" cy="40811" r="275.591" /> 
<circle cx="29000" cy="40811" r="275.591" /> 
<circle cx="30000" cy="40811" r="275.591" /> 
<circle cx="31000" cy="40811" r="275.591" /> 
<circle cx="32000" cy="40811" r="275.591" /> 
<circle cx="33000" cy="40811" r="275.591" /> 
<circle cx="33000" cy="17189" r="275.591" /> 
<circle cx="32000" cy="17189" r="275.591" /> 
<circle cx="31000" cy="17189" r="275.591" /> 
<circle cx="30000" cy="17189" r="275.591" /> 
<circle cx="29000" cy="17189" r="275.591" /> 
<circle cx="28000" cy="17189" r="275.591" /> 
<circle cx="27000" cy="17189" r="275.591" /> 
<circle cx="26000" cy="17189" r="275.591" /> 
<circle cx="25000" cy="17189" r="275.591" /> 
<circle cx="24000" cy="17189" r="275.591" /> 
<circle cx="32500" cy="27500" r="255.315" /> 
<circle cx="32500" cy="28500" r="255.315" /> 
</g>
<g style="fill:#BFBFBF; fill-opacity:1.0; 
stroke:#BFBFBF; stroke-width:39.3701; stroke-opacity:1; 
stroke-linecap:round; stroke-linejoin:round;">
<circle cx="34000" cy="23500" r="155.315" /> 
<circle cx="34000" cy="19500" r="155.315" /> 
<circle cx="23000" cy="20500" r="155.315" /> 
<circle cx="33500" cy="19000" r="155.315" /> 
<circle cx="33000" cy="18500" r="155.315" /> 
<circle cx="32000" cy="37000" r="155.315" /> 
<circle cx="31500" cy="37500" r="155.315" /> 
<circle cx="35500" cy="22000" r="155.315" /> 
<circle cx="31000" cy="38000" r="155.315" /> 
<circle cx="32500" cy="18000" r="155.315" /> 
<circle cx="34500" cy="20000" r="155.315" /> 
<circle cx="34500" cy="23500" r="155.315" /> 
<circle cx="36500" cy="28500" r="155.315" /> 
<circle cx="33500" cy="25000" r="155.315" /> 
</g>
<g style="fill:#9F0000; fill-opacity:1.0; 
stroke:#9F0000; stroke-width:100; stroke-opacity:1; 
stroke-linecap:round; stroke-linejoin:round;">
<path d="M30000 30000
L33500 30000
" />
<path d="M34000 29500
L33500 30000
" />
<path d="M34000 29500
L34000 23500
" />
</g>
<g style="fill:#009F00; fill-opacity:1.0; 
stroke:#009F00; stroke-width:100; stroke-opacity:1; 
stroke-linecap:round; stroke-linejoin:round;">
<path d="M34000 23500
L34000 19500
" />
</g>
<g style="fill:#9F0000; fill-opacity:1.0; 
stroke:#9F0000; stroke-width:100; stroke-opacity:1; 
stroke-linecap:round; stroke-linejoin:round;">
<path d="M19500 19000
L20000 19500
" />
<path d="M37000 19000
L37500 19000
" />
<path d="M36500 19500
L37000 19000
" />
<path d="M34000 19500
L36500 19500
" />
<path d="M20000 19500
L34000 19500
" />
<path d="M30000 35000
L29000 35000
" />
</g>
<g style="fill:#009F00; fill-opacity:1.0; 
stroke:#009F00; stroke-width:100; stroke-opacity:1; 
stroke-linecap:round; stroke-linejoin:round;">
<path d="M23311 17188
L24000 17188
" />
<path d="M23000 17500
L23311 17188
" />
</g>
<g style="fill:#9F0000; fill-opacity:1.0; 
stroke:#9F0000; stroke-width:100; stroke-opacity:1; 
stroke-linecap:round; stroke-linejoin:round;">
<path d="M29000 35000
L28500 34500
" />
</g>
<g style="fill:#009F00; fill-opacity:1.0; 
stroke:#009F00; stroke-width:100; stroke-opacity:1; 
stroke-linecap:round; stroke-linejoin:round;">
<path d="M30000 35000
L30000 37811
" />
<path d="M30000 37811
L33000 40811
" />
<path d="M23000 20500
L23000 17500
" />
</g>
<g style="fill:#9F0000; fill-opacity:1.0; 
stroke:#9F0000; stroke-width:100; stroke-opacity:1; 
stroke-linecap:round; stroke-linejoin:round;">
<path d="M28000 20500
L23000 20500
" />
<path d="M28500 21000
L28000 20500
" />
<path d="M28500 34500
L28500 21000
" />
</g>
<g style="fill:#009F00; fill-opacity:1.0; 
stroke:#009F00; stroke-width:100; stroke-opacity:1; 
stroke-linecap:round; stroke-linejoin:round;">
<path d="M32000 40811
L31811 40811
" />
<path d="M27000 36000
L27000 35000
" />
<path d="M31811 40811
L27000 36000
" />
<path d="M27000 26000
L24500 23500
" />
<path d="M27000 18000
L27000 17188
" />
<path d="M26500 18500
L27000 18000
" />
<path d="M26000 18500
L26500 18500
" />
<path d="M24500 20000
L26000 18500
" />
<path d="M24500 23500
L24500 20000
" />
<path d="M27000 25000
L25000 23000
" />
<path d="M28000 18500
L28000 17188
" />
<path d="M27500 19000
L28000 18500
" />
<path d="M26500 19000
L27500 19000
" />
<path d="M25000 20500
L26500 19000
" />
<path d="M25000 23000
L25000 20500
" />
<path d="M27000 24000
L25500 22500
" />
<path d="M29000 19500
L29000 17188
" />
<path d="M28500 20000
L29000 19500
" />
<path d="M26500 20000
L28500 20000
" />
<path d="M25500 21000
L26500 20000
" />
<path d="M25500 22500
L25500 21000
" />
<path d="M27000 23000
L26000 22000
" />
<path d="M30000 20000
L30000 17188
" />
<path d="M29500 20500
L30000 20000
" />
<path d="M27000 20500
L29500 20500
" />
<path d="M26000 21500
L27000 20500
" />
<path d="M26000 22000
L26000 21500
" />
<path d="M31000 17188
L31000 20000
" />
<path d="M28000 21000
L27000 22000
" />
<path d="M30000 21000
L28000 21000
" />
<path d="M31000 20000
L30000 21000
" />
<path d="M32000 17188
L32000 20000
" />
<path d="M32000 20000
L30000 22000
" />
<path d="M31000 40811
L30811 40811
" />
<path d="M26000 35000
L27000 34000
" />
<path d="M26000 36000
L26000 35000
" />
<path d="M30811 40811
L26000 36000
" />
</g>
<g style="fill:#9F0000; fill-opacity:1.0; 
stroke:#9F0000; stroke-width:100; stroke-opacity:1; 
stroke-linecap:round; stroke-linejoin:round;">
<path d="M27000 40811
L27000 40500
" />
<path d="M29188 40000
L30000 40811
" />
<path d="M27500 40000
L29188 40000
" />
<path d="M27000 40500
L27500 40000
" />
</g>
<g style="fill:#009F00; fill-opacity:1.0; 
stroke:#009F00; stroke-width:100; stroke-opacity:1; 
stroke-linecap:round; stroke-linejoin:round;">
<path d="M30000 40811
L29811 40811
" />
<path d="M25500 34500
L27000 33000
" />
<path d="M25500 36500
L25500 34500
" />
<path d="M29811 40811
L25500 36500
" />
<path d="M29000 40811
L28811 40811
" />
<path d="M25000 34000
L27000 32000
" />
<path d="M25000 37000
L25000 34000
" />
<path d="M28811 40811
L25000 37000
" />
<path d="M28000 40811
L27811 40811
" />
<path d="M24500 33500
L27000 31000
" />
<path d="M24500 37500
L24500 33500
" />
<path d="M27811 40811
L24500 37500
" />
<path d="M26000 40811
L26000 39500
" />
<path d="M24000 33000
L27000 30000
" />
<path d="M24000 37500
L24000 33000
" />
<path d="M26000 39500
L24000 37500
" />
<path d="M25000 40811
L25000 39000
" />
<path d="M26500 29000
L27000 29000
" />
<path d="M23500 32000
L26500 29000
" />
<path d="M23500 37500
L23500 32000
" />
<path d="M25000 39000
L23500 37500
" />
<path d="M27000 28000
L23500 24500
" />
<path d="M25000 18000
L25000 17188
" />
<path d="M23500 19500
L25000 18000
" />
<path d="M23500 24500
L23500 19500
" />
<path d="M27000 27000
L24000 24000
" />
<path d="M26000 17500
L26000 17188
" />
<path d="M24000 19500
L26000 17500
" />
<path d="M24000 24000
L24000 19500
" />
<path d="M30000 26000
L31500 26000
" />
<path d="M33500 24000
L31500 26000
" />
<path d="M33500 24000
L33500 19000
" />
</g>
<g style="fill:#9F0000; fill-opacity:1.0; 
stroke:#9F0000; stroke-width:100; stroke-opacity:1; 
stroke-linecap:round; stroke-linejoin:round;">
<path d="M19500 18000
L20500 19000
" />
<path d="M37000 18000
L37500 18000
" />
<path d="M36000 19000
L37000 18000
" />
<path d="M33500 19000
L36000 19000
" />
<path d="M20500 19000
L33500 19000
" />
</g>
<g style="fill:#009F00; fill-opacity:1.0; 
stroke:#009F00; stroke-width:100; stroke-opacity:1; 
stroke-linecap:round; stroke-linejoin:round;">
<path d="M30000 25000
L30500 25000
" />
<path d="M33000 22500
L30500 25000
" />
<path d="M33000 22500
L33000 18500
" />
</g>
<g style="fill:#9F0000; fill-opacity:1.0; 
stroke:#9F0000; stroke-width:100; stroke-opacity:1; 
stroke-linecap:round; stroke-linejoin:round;">
<path d="M19500 17000
L21000 18500
" />
<path d="M36000 18500
L37500 17000
" />
<path d="M33000 18500
L36000 18500
" />
<path d="M21000 18500
L33000 18500
" />
</g>
<g style="fill:#009F00; fill-opacity:1.0; 
stroke:#009F00; stroke-width:100; stroke-opacity:1; 
stroke-linecap:round; stroke-linejoin:round;">
<path d="M30000 32000
L30500 32000
" />
<path d="M32000 33500
L30500 32000
" />
</g>
<g style="fill:#9F0000; fill-opacity:1.0; 
stroke:#9F0000; stroke-width:100; stroke-opacity:1; 
stroke-linecap:round; stroke-linejoin:round;">
<path d="M19500 21000
L25500 21000
" />
<path d="M32000 37000
L35000 37000
" />
<path d="M35500 23000
L37500 21000
" />
<path d="M35500 36500
L35500 23000
" />
<path d="M35000 37000
L35500 36500
" />
</g>
<g style="fill:#009F00; fill-opacity:1.0; 
stroke:#009F00; stroke-width:100; stroke-opacity:1; 
stroke-linecap:round; stroke-linejoin:round;">
<path d="M32000 33500
L32000 37000
" />
</g>
<g style="fill:#9F0000; fill-opacity:1.0; 
stroke:#9F0000; stroke-width:100; stroke-opacity:1; 
stroke-linecap:round; stroke-linejoin:round;">
<path d="M26500 37000
L32000 37000
" />
<path d="M26000 36500
L26500 37000
" />
<path d="M26000 21500
L26000 36500
" />
<path d="M25500 21000
L26000 21500
" />
<path d="M19500 22000
L25000 22000
" />
<path d="M25000 22000
L25500 22500
" />
</g>
<g style="fill:#009F00; fill-opacity:1.0; 
stroke:#009F00; stroke-width:100; stroke-opacity:1; 
stroke-linecap:round; stroke-linejoin:round;">
<path d="M30000 33000
L30500 33000
" />
<path d="M31500 34000
L30500 33000
" />
<path d="M31500 34000
L31500 37500
" />
</g>
<g style="fill:#9F0000; fill-opacity:1.0; 
stroke:#9F0000; stroke-width:100; stroke-opacity:1; 
stroke-linecap:round; stroke-linejoin:round;">
<path d="M26500 37500
L31500 37500
" />
<path d="M25500 36500
L26500 37500
" />
<path d="M25500 22500
L25500 36500
" />
</g>
<g style="fill:#009F00; fill-opacity:1.0; 
stroke:#009F00; stroke-width:100; stroke-opacity:1; 
stroke-linecap:round; stroke-linejoin:round;">
<path d="M35500 22000
L37500 22000
" />
</g>
<g style="fill:#9F0000; fill-opacity:1.0; 
stroke:#9F0000; stroke-width:100; stroke-opacity:1; 
stroke-linecap:round; stroke-linejoin:round;">
<path d="M30000 24000
L32000 22000
" />
<path d="M32000 22000
L35500 22000
" />
<path d="M31000 38000
L35500 38000
" />
<path d="M36000 24500
L37500 23000
" />
<path d="M36000 37500
L36000 24500
" />
<path d="M35500 38000
L36000 37500
" />
</g>
<g style="fill:#009F00; fill-opacity:1.0; 
stroke:#009F00; stroke-width:100; stroke-opacity:1; 
stroke-linecap:round; stroke-linejoin:round;">
<path d="M31000 34500
L31000 38000
" />
</g>
<g style="fill:#9F0000; fill-opacity:1.0; 
stroke:#9F0000; stroke-width:100; stroke-opacity:1; 
stroke-linecap:round; stroke-linejoin:round;">
<path d="M26000 38000
L31000 38000
" />
<path d="M25000 37000
L26000 38000
" />
<path d="M19500 23000
L24500 23000
" />
<path d="M24500 23000
L25000 23500
" />
</g>
<g style="fill:#009F00; fill-opacity:1.0; 
stroke:#009F00; stroke-width:100; stroke-opacity:1; 
stroke-linecap:round; stroke-linejoin:round;">
<path d="M30000 34000
L30500 34000
" />
<path d="M31000 34500
L30500 34000
" />
</g>
<g style="fill:#9F0000; fill-opacity:1.0; 
stroke:#9F0000; stroke-width:100; stroke-opacity:1; 
stroke-linecap:round; stroke-linejoin:round;">
<path d="M25000 23500
L25000 37000
" />
</g>
<g style="fill:#009F00; fill-opacity:1.0; 
stroke:#009F00; stroke-width:100; stroke-opacity:1; 
stroke-linecap:round; stroke-linejoin:round;">
<path d="M30000 23000
L30500 23000
" />
<path d="M32500 21000
L30500 23000
" />
<path d="M32500 21000
L32500 18000
" />
</g>
<g style="fill:#9F0000; fill-opacity:1.0; 
stroke:#9F0000; stroke-width:100; stroke-opacity:1; 
stroke-linecap:round; stroke-linejoin:round;">
<path d="M19500 16000
L21500 18000
" />
<path d="M35500 18000
L37500 16000
" />
<path d="M32500 18000
L35500 18000
" />
<path d="M21500 18000
L32500 18000
" />
<path d="M34500 20000
L37500 20000
" />
</g>
<g style="fill:#009F00; fill-opacity:1.0; 
stroke:#009F00; stroke-width:100; stroke-opacity:1; 
stroke-linecap:round; stroke-linejoin:round;">
<path d="M34500 23500
L34500 20000
" />
</g>
<g style="fill:#9F0000; fill-opacity:1.0; 
stroke:#9F0000; stroke-width:100; stroke-opacity:1; 
stroke-linecap:round; stroke-linejoin:round;">
<path d="M19500 20000
L34500 20000
" />
<path d="M30000 31000
L33500 31000
" />
<path d="M34500 30000
L33500 31000
" />
<path d="M34500 30000
L34500 23500
" />
<path d="M36500 25000
L37500 24000
" />
<path d="M20500 38000
L21000 38500
" />
<path d="M21000 38500
L36000 38500
" />
<path d="M19500 24000
L20000 24000
" />
<path d="M20500 24500
L20500 38000
" />
<path d="M20000 24000
L20500 24500
" />
<path d="M36000 38500
L36500 38000
" />
</g>
<g style="fill:#009F00; fill-opacity:1.0; 
stroke:#009F00; stroke-width:100; stroke-opacity:1; 
stroke-linecap:round; stroke-linejoin:round;">
<path d="M32500 28500
L36500 28500
" />
<path d="M30000 29000
L32000 29000
" />
<path d="M32000 29000
L32500 28500
" />
</g>
<g style="fill:#9F0000; fill-opacity:1.0; 
stroke:#9F0000; stroke-width:100; stroke-opacity:1; 
stroke-linecap:round; stroke-linejoin:round;">
<path d="M36500 38000
L36500 28500
" />
<path d="M36500 28500
L36500 25000
" />
</g>
<g style="fill:#009F00; fill-opacity:1.0; 
stroke:#009F00; stroke-width:100; stroke-opacity:1; 
stroke-linecap:round; stroke-linejoin:round;">
<path d="M30000 27000
L32000 27000
" />
<path d="M32000 27000
L32500 27500
" />
</g>
<g style="fill:#9F0000; fill-opacity:1.0; 
stroke:#9F0000; stroke-width:100; stroke-opacity:1; 
stroke-linecap:round; stroke-linejoin:round;">
<path d="M37500 25000
L37500 38500
" />
<path d="M37000 39000
L24000 39000
" />
<path d="M37000 39000
L37500 38500
" />
</g>
<g style="fill:#009F00; fill-opacity:1.0; 
stroke:#009F00; stroke-width:100; stroke-opacity:1; 
stroke-linecap:round; stroke-linejoin:round;">
<path d="M33500 25000
L37500 25000
" />
</g>
<g style="fill:#9F0000; fill-opacity:1.0; 
stroke:#9F0000; stroke-width:100; stroke-opacity:1; 
stroke-linecap:round; stroke-linejoin:round;">
<path d="M19500 25000
L19500 38500
" />
<path d="M19500 38500
L20000 39000
" />
</g>
<g style="fill:#009F00; fill-opacity:1.0; 
stroke:#009F00; stroke-width:100; stroke-opacity:1; 
stroke-linecap:round; stroke-linejoin:round;">
<path d="M19500 25000
L22000 25000
" />
<path d="M22000 25000
L22500 24500
" />
</g>
<g style="fill:#9F0000; fill-opacity:1.0; 
stroke:#9F0000; stroke-width:100; stroke-opacity:1; 
stroke-linecap:round; stroke-linejoin:round;">
<path d="M24000 39000
L24000 40811
" />
<path d="M20000 39000
L24000 39000
" />
<path d="M30000 28000
L30500 28000
" />
<path d="M30500 28000
L33500 25000
" />
</g>
<g style="fill:#009F00; fill-opacity:1.0; 
stroke:#009F00; stroke-width:100; stroke-opacity:1; 
stroke-linecap:round; stroke-linejoin:round;">
<path d="M32311 16500
L33000 17188
" />
<path d="M23000 16500
L32311 16500
" />
<path d="M22500 17000
L23000 16500
" />
<path d="M22500 24500
L22500 17000
" />
</g>
<g style="fill:#FFFFFF; fill-opacity:1.0; 
stroke:#FFFFFF; stroke-width:39.3701; stroke-opacity:1; 
stroke-linecap:round; stroke-linejoin:round;">
<circle cx="34000" cy="23500" r="105.315" /> 
<circle cx="34000" cy="19500" r="105.315" /> 
<circle cx="23000" cy="20500" r="105.315" /> 
<circle cx="33500" cy="19000" r="105.315" /> 
<circle cx="33000" cy="18500" r="105.315" /> 
<circle cx="32000" cy="37000" r="105.315" /> 
<circle cx="31500" cy="37500" r="105.315" /> 
<circle cx="35500" cy="22000" r="105.315" /> 
<circle cx="31000" cy="38000" r="105.315" /> 
<circle cx="32500" cy="18000" r="105.315" /> 
<circle cx="34500" cy="20000" r="105.315" /> 
<circle cx="34500" cy="23500" r="105.315" /> 
<circle cx="36500" cy="28500" r="105.315" /> 
<circle cx="33500" cy="25000" r="105.315" /> 
<circle cx="37500" cy="16000" r="140.315" /> 
<circle cx="37500" cy="17000" r="140.315" /> 
<circle cx="37500" cy="18000" r="140.315" /> 
<circle cx="37500" cy="19000" r="140.315" /> 
<circle cx="37500" cy="20000" r="140.315" /> 
<circle cx="37500" cy="21000" r="140.315" /> 
<circle cx="37500" cy="22000" r="140.315" /> 
<circle cx="37500" cy="23000" r="140.315" /> 
<circle cx="37500" cy="24000" r="140.315" /> 
<circle cx="37500" cy="25000" r="140.315" /> 
<circle cx="19500" cy="16000" r="140.315" /> 
<circle cx="19500" cy="17000" r="140.315" /> 
<circle cx="19500" cy="18000" r="140.315" /> 
<circle cx="19500" cy="19000" r="140.315" /> 
<circle cx="19500" cy="20000" r="140.315" /> 
<circle cx="19500" cy="21000" r="140.315" /> 
<circle cx="19500" cy="22000" r="140.315" /> 
<circle cx="19500" cy="23000" r="140.315" /> 
<circle cx="19500" cy="24000" r="140.315" /> 
<circle cx="19500" cy="25000" r="140.315" /> 
<circle cx="27000" cy="34000" r="140.315" /> 
<circle cx="27000" cy="33000" r="140.315" /> 
<circle cx="27000" cy="32000" r="140.315" /> 
<circle cx="27000" cy="31000" r="140.315" /> 
<circle cx="27000" cy="30000" r="140.315" /> 
<circle cx="27000" cy="29000" r="140.315" /> 
<circle cx="27000" cy="28000" r="140.315" /> 
<circle cx="27000" cy="27000" r="140.315" /> 
<circle cx="27000" cy="26000" r="140.315" /> 
<circle cx="27000" cy="25000" r="140.315" /> 
<circle cx="27000" cy="24000" r="140.315" /> 
<circle cx="27000" cy="23000" r="140.315" /> 
<circle cx="27000" cy="22000" r="140.315" /> 
<circle cx="27000" cy="35000" r="140.315" /> 
<circle cx="30000" cy="22000" r="140.315" /> 
<circle cx="30000" cy="23000" r="140.315" /> 
<circle cx="30000" cy="24000" r="140.315" /> 
<circle cx="30000" cy="25000" r="140.315" /> 
<circle cx="30000" cy="26000" r="140.315" /> 
<circle cx="30000" cy="27000" r="140.315" /> 
<circle cx="30000" cy="28000" r="140.315" /> 
<circle cx="30000" cy="29000" r="140.315" /> 
<circle cx="30000" cy="30000" r="140.315" /> 
<circle cx="30000" cy="31000" r="140.315" /> 
<circle cx="30000" cy="32000" r="140.315" /> 
<circle cx="30000" cy="33000" r="140.315" /> 
<circle cx="30000" cy="34000" r="140.315" /> 
<circle cx="30000" cy="35000" r="140.315" /> 
<circle cx="27000" cy="40811" r="98.4252" /> 
<circle cx="26000" cy="40811" r="98.4252" /> 
<circle cx="25000" cy="40811" r="98.4252" /> 
<circle cx="24000" cy="40811" r="98.4252" /> 
<circle cx="28000" cy="40811" r="98.4252" /> 
<circle cx="29000" cy="40811" r="98.4252" /> 
<circle cx="30000" cy="40811" r="98.4252" /> 
<circle cx="31000" cy="40811" r="98.4252" /> 
<circle cx="32000" cy="40811" r="98.4252" /> 
<circle cx="33000" cy="40811" r="98.4252" /> 
<circle cx="33000" cy="17189" r="98.4252" /> 
<circle cx="32000" cy="17189" r="98.4252" /> 
<circle cx="31000" cy="17189" r="98.4252" /> 
<circle cx="30000" cy="17189" r="98.4252" /> 
<circle cx="29000" cy="17189" r="98.4252" /> 
<circle cx="28000" cy="17189" r="98.4252" /> 
<circle cx="27000" cy="17189" r="98.4252" /> 
<circle cx="26000" cy="17189" r="98.4252" /> 
<circle cx="25000" cy="17189" r="98.4252" /> 
<circle cx="24000" cy="17189" r="98.4252" /> 
<circle cx="32500" cy="27500" r="140.315" /> 
<circle cx="32500" cy="28500" r="140.315" /> 
</g> 
</svg>
