G04 (created by PCBNEW (2013-07-07 BZR 4022)-stable) date 9/10/2014 12:23:06 PM*
%MOIN*%
G04 Gerber Fmt 3.4, Leading zero omitted, Abs format*
%FSLAX34Y34*%
G01*
G70*
G90*
G04 APERTURE LIST*
%ADD10C,0.00590551*%
%ADD11R,0.055X0.055*%
%ADD12C,0.055*%
%ADD13C,0.0590551*%
G04 APERTURE END LIST*
G54D10*
G54D11*
X37500Y-16000D03*
G54D12*
X37500Y-17000D03*
X37500Y-18000D03*
X37500Y-19000D03*
X37500Y-20000D03*
X37500Y-21000D03*
X37500Y-22000D03*
X37500Y-23000D03*
X37500Y-24000D03*
X37500Y-25000D03*
G54D11*
X19500Y-16000D03*
G54D12*
X19500Y-17000D03*
X19500Y-18000D03*
X19500Y-19000D03*
X19500Y-20000D03*
X19500Y-21000D03*
X19500Y-22000D03*
X19500Y-23000D03*
X19500Y-24000D03*
X19500Y-25000D03*
X27000Y-34000D03*
X27000Y-33000D03*
X27000Y-32000D03*
X27000Y-31000D03*
X27000Y-30000D03*
X27000Y-29000D03*
X27000Y-28000D03*
X27000Y-27000D03*
X27000Y-26000D03*
X27000Y-25000D03*
X27000Y-24000D03*
X27000Y-23000D03*
X27000Y-22000D03*
G54D11*
X27000Y-35000D03*
G54D12*
X30000Y-22000D03*
X30000Y-23000D03*
X30000Y-24000D03*
X30000Y-25000D03*
X30000Y-26000D03*
X30000Y-27000D03*
X30000Y-28000D03*
X30000Y-29000D03*
X30000Y-30000D03*
X30000Y-31000D03*
X30000Y-32000D03*
X30000Y-33000D03*
X30000Y-34000D03*
X30000Y-35000D03*
G54D13*
X27000Y-40811D03*
X26000Y-40811D03*
X25000Y-40811D03*
X24000Y-40811D03*
X28000Y-40811D03*
X29000Y-40811D03*
X30000Y-40811D03*
X31000Y-40811D03*
X32000Y-40811D03*
X33000Y-40811D03*
X33000Y-17188D03*
X32000Y-17188D03*
X31000Y-17188D03*
X30000Y-17188D03*
X29000Y-17188D03*
X28000Y-17188D03*
X27000Y-17188D03*
X26000Y-17188D03*
X25000Y-17188D03*
X24000Y-17188D03*
G54D12*
X31500Y-28000D03*
X31500Y-29000D03*
M02*
