G04 (created by PCBNEW (2013-07-07 BZR 4022)-stable) date 9/9/2014 6:41:59 PM*
%MOIN*%
G04 Gerber Fmt 3.4, Leading zero omitted, Abs format*
%FSLAX34Y34*%
G01*
G70*
G90*
G04 APERTURE LIST*
%ADD10C,0.00590551*%
%ADD11C,0.011811*%
%ADD12C,0.012*%
%ADD13C,0.015*%
%ADD14C,0.0107*%
%ADD15C,0.01*%
%ADD16C,0.01125*%
%ADD17C,0.008*%
G04 APERTURE END LIST*
G54D10*
G54D11*
X21739Y-26424D02*
X21148Y-26424D01*
X21739Y-26761D02*
X21401Y-26508D01*
X21148Y-26761D02*
X21485Y-26424D01*
X21148Y-26958D02*
X21739Y-27098D01*
X21317Y-27211D01*
X21739Y-27323D01*
X21148Y-27464D01*
X21570Y-27661D02*
X21570Y-27942D01*
X21739Y-27605D02*
X21148Y-27802D01*
X21739Y-27998D01*
X21514Y-28195D02*
X21514Y-28645D01*
X21204Y-28898D02*
X21176Y-28926D01*
X21148Y-28983D01*
X21148Y-29123D01*
X21176Y-29179D01*
X21204Y-29208D01*
X21260Y-29236D01*
X21317Y-29236D01*
X21401Y-29208D01*
X21739Y-28870D01*
X21739Y-29236D01*
X21204Y-29461D02*
X21176Y-29489D01*
X21148Y-29545D01*
X21148Y-29686D01*
X21176Y-29742D01*
X21204Y-29770D01*
X21260Y-29798D01*
X21317Y-29798D01*
X21401Y-29770D01*
X21739Y-29433D01*
X21739Y-29798D01*
X21739Y-30361D02*
X21739Y-30023D01*
X21739Y-30192D02*
X21148Y-30192D01*
X21232Y-30136D01*
X21289Y-30079D01*
X21317Y-30023D01*
X21148Y-30557D02*
X21739Y-30951D01*
X21148Y-30951D02*
X21739Y-30557D01*
X21739Y-31457D02*
X21739Y-31176D01*
X21148Y-31176D01*
X21429Y-31851D02*
X21457Y-31935D01*
X21485Y-31964D01*
X21542Y-31992D01*
X21626Y-31992D01*
X21682Y-31964D01*
X21710Y-31935D01*
X21739Y-31879D01*
X21739Y-31654D01*
X21148Y-31654D01*
X21148Y-31851D01*
X21176Y-31907D01*
X21204Y-31935D01*
X21260Y-31964D01*
X21317Y-31964D01*
X21373Y-31935D01*
X21401Y-31907D01*
X21429Y-31851D01*
X21429Y-31654D01*
X21429Y-32892D02*
X21457Y-32976D01*
X21485Y-33004D01*
X21542Y-33032D01*
X21626Y-33032D01*
X21682Y-33004D01*
X21710Y-32976D01*
X21739Y-32920D01*
X21739Y-32695D01*
X21148Y-32695D01*
X21148Y-32892D01*
X21176Y-32948D01*
X21204Y-32976D01*
X21260Y-33004D01*
X21317Y-33004D01*
X21373Y-32976D01*
X21401Y-32948D01*
X21429Y-32892D01*
X21429Y-32695D01*
X21739Y-33538D02*
X21429Y-33538D01*
X21373Y-33510D01*
X21345Y-33454D01*
X21345Y-33341D01*
X21373Y-33285D01*
X21710Y-33538D02*
X21739Y-33482D01*
X21739Y-33341D01*
X21710Y-33285D01*
X21654Y-33257D01*
X21598Y-33257D01*
X21542Y-33285D01*
X21514Y-33341D01*
X21514Y-33482D01*
X21485Y-33538D01*
X21710Y-34073D02*
X21739Y-34016D01*
X21739Y-33904D01*
X21710Y-33848D01*
X21682Y-33820D01*
X21626Y-33791D01*
X21457Y-33791D01*
X21401Y-33820D01*
X21373Y-33848D01*
X21345Y-33904D01*
X21345Y-34016D01*
X21373Y-34073D01*
X21739Y-34326D02*
X21148Y-34326D01*
X21514Y-34382D02*
X21739Y-34551D01*
X21345Y-34551D02*
X21570Y-34326D01*
X21345Y-34804D02*
X21935Y-34804D01*
X21373Y-34804D02*
X21345Y-34860D01*
X21345Y-34973D01*
X21373Y-35029D01*
X21401Y-35057D01*
X21457Y-35085D01*
X21626Y-35085D01*
X21682Y-35057D01*
X21710Y-35029D01*
X21739Y-34973D01*
X21739Y-34860D01*
X21710Y-34804D01*
X21739Y-35591D02*
X21429Y-35591D01*
X21373Y-35563D01*
X21345Y-35507D01*
X21345Y-35394D01*
X21373Y-35338D01*
X21710Y-35591D02*
X21739Y-35535D01*
X21739Y-35394D01*
X21710Y-35338D01*
X21654Y-35310D01*
X21598Y-35310D01*
X21542Y-35338D01*
X21514Y-35394D01*
X21514Y-35535D01*
X21485Y-35591D01*
X21710Y-36125D02*
X21739Y-36069D01*
X21739Y-35957D01*
X21710Y-35901D01*
X21682Y-35872D01*
X21626Y-35844D01*
X21457Y-35844D01*
X21401Y-35872D01*
X21373Y-35901D01*
X21345Y-35957D01*
X21345Y-36069D01*
X21373Y-36125D01*
X21739Y-36379D02*
X21148Y-36379D01*
X21514Y-36435D02*
X21739Y-36604D01*
X21345Y-36604D02*
X21570Y-36379D01*
X22627Y-26255D02*
X22655Y-26227D01*
X22683Y-26142D01*
X22683Y-26086D01*
X22655Y-26002D01*
X22599Y-25946D01*
X22543Y-25917D01*
X22430Y-25889D01*
X22346Y-25889D01*
X22233Y-25917D01*
X22177Y-25946D01*
X22121Y-26002D01*
X22093Y-26086D01*
X22093Y-26142D01*
X22121Y-26227D01*
X22149Y-26255D01*
X22627Y-26845D02*
X22655Y-26817D01*
X22683Y-26733D01*
X22683Y-26677D01*
X22655Y-26592D01*
X22599Y-26536D01*
X22543Y-26508D01*
X22430Y-26480D01*
X22346Y-26480D01*
X22233Y-26508D01*
X22177Y-26536D01*
X22121Y-26592D01*
X22093Y-26677D01*
X22093Y-26733D01*
X22121Y-26817D01*
X22149Y-26845D01*
X22093Y-27211D02*
X22093Y-27267D01*
X22121Y-27323D01*
X22149Y-27352D01*
X22205Y-27380D01*
X22318Y-27408D01*
X22458Y-27408D01*
X22571Y-27380D01*
X22627Y-27352D01*
X22655Y-27323D01*
X22683Y-27267D01*
X22683Y-27211D01*
X22655Y-27155D01*
X22627Y-27127D01*
X22571Y-27098D01*
X22458Y-27070D01*
X22318Y-27070D01*
X22205Y-27098D01*
X22149Y-27127D01*
X22121Y-27155D01*
X22093Y-27211D01*
X22683Y-28111D02*
X22093Y-28111D01*
X22515Y-28308D01*
X22093Y-28505D01*
X22683Y-28505D01*
X22683Y-29039D02*
X22374Y-29039D01*
X22318Y-29011D01*
X22290Y-28955D01*
X22290Y-28842D01*
X22318Y-28786D01*
X22655Y-29039D02*
X22683Y-28983D01*
X22683Y-28842D01*
X22655Y-28786D01*
X22599Y-28758D01*
X22543Y-28758D01*
X22487Y-28786D01*
X22458Y-28842D01*
X22458Y-28983D01*
X22430Y-29039D01*
X22290Y-29236D02*
X22290Y-29461D01*
X22093Y-29320D02*
X22599Y-29320D01*
X22655Y-29348D01*
X22683Y-29404D01*
X22683Y-29461D01*
X22290Y-29573D02*
X22290Y-29798D01*
X22093Y-29658D02*
X22599Y-29658D01*
X22655Y-29686D01*
X22683Y-29742D01*
X22683Y-29798D01*
X22683Y-30445D02*
X22093Y-30445D01*
X22515Y-30642D01*
X22093Y-30839D01*
X22683Y-30839D01*
X22683Y-31373D02*
X22374Y-31373D01*
X22318Y-31345D01*
X22290Y-31289D01*
X22290Y-31176D01*
X22318Y-31120D01*
X22655Y-31373D02*
X22683Y-31317D01*
X22683Y-31176D01*
X22655Y-31120D01*
X22599Y-31092D01*
X22543Y-31092D01*
X22487Y-31120D01*
X22458Y-31176D01*
X22458Y-31317D01*
X22430Y-31373D01*
X22655Y-31626D02*
X22683Y-31682D01*
X22683Y-31795D01*
X22655Y-31851D01*
X22599Y-31879D01*
X22571Y-31879D01*
X22515Y-31851D01*
X22487Y-31795D01*
X22487Y-31710D01*
X22458Y-31654D01*
X22402Y-31626D01*
X22374Y-31626D01*
X22318Y-31654D01*
X22290Y-31710D01*
X22290Y-31795D01*
X22318Y-31851D01*
X22290Y-32048D02*
X22290Y-32273D01*
X22093Y-32132D02*
X22599Y-32132D01*
X22655Y-32160D01*
X22683Y-32217D01*
X22683Y-32273D01*
X22683Y-32470D02*
X22290Y-32470D01*
X22402Y-32470D02*
X22346Y-32498D01*
X22318Y-32526D01*
X22290Y-32582D01*
X22290Y-32638D01*
X22683Y-33088D02*
X22374Y-33088D01*
X22318Y-33060D01*
X22290Y-33004D01*
X22290Y-32892D01*
X22318Y-32835D01*
X22655Y-33088D02*
X22683Y-33032D01*
X22683Y-32892D01*
X22655Y-32835D01*
X22599Y-32807D01*
X22543Y-32807D01*
X22487Y-32835D01*
X22458Y-32892D01*
X22458Y-33032D01*
X22430Y-33088D01*
X22655Y-33623D02*
X22683Y-33566D01*
X22683Y-33454D01*
X22655Y-33398D01*
X22627Y-33370D01*
X22571Y-33341D01*
X22402Y-33341D01*
X22346Y-33370D01*
X22318Y-33398D01*
X22290Y-33454D01*
X22290Y-33566D01*
X22318Y-33623D01*
X22655Y-34129D02*
X22683Y-34073D01*
X22683Y-33960D01*
X22655Y-33904D01*
X22627Y-33876D01*
X22571Y-33848D01*
X22402Y-33848D01*
X22346Y-33876D01*
X22318Y-33904D01*
X22290Y-33960D01*
X22290Y-34073D01*
X22318Y-34129D01*
X22683Y-34382D02*
X22290Y-34382D01*
X22093Y-34382D02*
X22121Y-34354D01*
X22149Y-34382D01*
X22121Y-34410D01*
X22093Y-34382D01*
X22149Y-34382D01*
X22149Y-35085D02*
X22121Y-35113D01*
X22093Y-35169D01*
X22093Y-35310D01*
X22121Y-35366D01*
X22149Y-35394D01*
X22205Y-35422D01*
X22262Y-35422D01*
X22346Y-35394D01*
X22683Y-35057D01*
X22683Y-35422D01*
X22093Y-35788D02*
X22093Y-35844D01*
X22121Y-35901D01*
X22149Y-35929D01*
X22205Y-35957D01*
X22318Y-35985D01*
X22458Y-35985D01*
X22571Y-35957D01*
X22627Y-35929D01*
X22655Y-35901D01*
X22683Y-35844D01*
X22683Y-35788D01*
X22655Y-35732D01*
X22627Y-35704D01*
X22571Y-35676D01*
X22458Y-35647D01*
X22318Y-35647D01*
X22205Y-35676D01*
X22149Y-35704D01*
X22121Y-35732D01*
X22093Y-35788D01*
X22683Y-36547D02*
X22683Y-36210D01*
X22683Y-36379D02*
X22093Y-36379D01*
X22177Y-36322D01*
X22233Y-36266D01*
X22262Y-36210D01*
X22290Y-37053D02*
X22683Y-37053D01*
X22065Y-36913D02*
X22487Y-36772D01*
X22487Y-37138D01*
X37217Y-41929D02*
X37132Y-41957D01*
X37104Y-41985D01*
X37076Y-42042D01*
X37076Y-42126D01*
X37104Y-42182D01*
X37132Y-42210D01*
X37188Y-42239D01*
X37413Y-42239D01*
X37413Y-41648D01*
X37217Y-41648D01*
X37160Y-41676D01*
X37132Y-41704D01*
X37104Y-41760D01*
X37104Y-41817D01*
X37132Y-41873D01*
X37160Y-41901D01*
X37217Y-41929D01*
X37413Y-41929D01*
X36570Y-42239D02*
X36570Y-41929D01*
X36598Y-41873D01*
X36654Y-41845D01*
X36767Y-41845D01*
X36823Y-41873D01*
X36570Y-42210D02*
X36626Y-42239D01*
X36767Y-42239D01*
X36823Y-42210D01*
X36851Y-42154D01*
X36851Y-42098D01*
X36823Y-42042D01*
X36767Y-42014D01*
X36626Y-42014D01*
X36570Y-41985D01*
X36035Y-42210D02*
X36092Y-42239D01*
X36204Y-42239D01*
X36260Y-42210D01*
X36289Y-42182D01*
X36317Y-42126D01*
X36317Y-41957D01*
X36289Y-41901D01*
X36260Y-41873D01*
X36204Y-41845D01*
X36092Y-41845D01*
X36035Y-41873D01*
X35782Y-42239D02*
X35782Y-41648D01*
X35726Y-42014D02*
X35557Y-42239D01*
X35557Y-41845D02*
X35782Y-42070D01*
G54D12*
X38000Y-15500D02*
X37000Y-15500D01*
X37000Y-15500D02*
X37000Y-25500D01*
X37000Y-25500D02*
X38000Y-25500D01*
X38000Y-25500D02*
X38000Y-15500D01*
X38000Y-16500D02*
X37000Y-16500D01*
X20000Y-15500D02*
X19000Y-15500D01*
X19000Y-15500D02*
X19000Y-25500D01*
X19000Y-25500D02*
X20000Y-25500D01*
X20000Y-25500D02*
X20000Y-15500D01*
X20000Y-16500D02*
X19000Y-16500D01*
G54D13*
X29500Y-36000D02*
X29500Y-21000D01*
X29500Y-21000D02*
X27500Y-21000D01*
X27500Y-21000D02*
X27500Y-36000D01*
X27500Y-36000D02*
X29500Y-36000D01*
X29000Y-36000D02*
X29000Y-35500D01*
X29000Y-35500D02*
X28000Y-35500D01*
X28000Y-35500D02*
X28000Y-36000D01*
X32500Y-27500D02*
X32500Y-28500D01*
X33059Y-27500D02*
G75*
G03X33059Y-27500I-559J0D01*
G74*
G01*
G54D14*
X36775Y-17684D02*
X36094Y-17684D01*
X36094Y-17847D01*
X36127Y-17887D01*
X36159Y-17908D01*
X36224Y-17928D01*
X36321Y-17928D01*
X36386Y-17908D01*
X36418Y-17887D01*
X36451Y-17847D01*
X36451Y-17684D01*
X36159Y-18091D02*
X36127Y-18112D01*
X36094Y-18152D01*
X36094Y-18254D01*
X36127Y-18295D01*
X36159Y-18315D01*
X36224Y-18336D01*
X36289Y-18336D01*
X36386Y-18315D01*
X36775Y-18071D01*
X36775Y-18336D01*
G54D12*
G54D15*
X36685Y-21390D02*
X36714Y-21371D01*
X36742Y-21314D01*
X36742Y-21276D01*
X36714Y-21219D01*
X36657Y-21180D01*
X36600Y-21161D01*
X36485Y-21142D01*
X36400Y-21142D01*
X36285Y-21161D01*
X36228Y-21180D01*
X36171Y-21219D01*
X36142Y-21276D01*
X36142Y-21314D01*
X36171Y-21371D01*
X36200Y-21390D01*
X36142Y-21638D02*
X36142Y-21714D01*
X36171Y-21752D01*
X36228Y-21790D01*
X36342Y-21809D01*
X36542Y-21809D01*
X36657Y-21790D01*
X36714Y-21752D01*
X36742Y-21714D01*
X36742Y-21638D01*
X36714Y-21600D01*
X36657Y-21561D01*
X36542Y-21542D01*
X36342Y-21542D01*
X36228Y-21561D01*
X36171Y-21600D01*
X36142Y-21638D01*
X36742Y-21980D02*
X36142Y-21980D01*
X36742Y-22209D01*
X36142Y-22209D01*
X36742Y-22400D02*
X36142Y-22400D01*
X36742Y-22628D01*
X36142Y-22628D01*
X36800Y-22723D02*
X36800Y-23028D01*
X36142Y-23200D02*
X36142Y-23238D01*
X36171Y-23276D01*
X36200Y-23295D01*
X36257Y-23314D01*
X36371Y-23333D01*
X36514Y-23333D01*
X36628Y-23314D01*
X36685Y-23295D01*
X36714Y-23276D01*
X36742Y-23238D01*
X36742Y-23200D01*
X36714Y-23161D01*
X36685Y-23142D01*
X36628Y-23123D01*
X36514Y-23104D01*
X36371Y-23104D01*
X36257Y-23123D01*
X36200Y-23142D01*
X36171Y-23161D01*
X36142Y-23200D01*
X36742Y-23714D02*
X36742Y-23485D01*
X36742Y-23600D02*
X36142Y-23600D01*
X36228Y-23561D01*
X36285Y-23523D01*
X36314Y-23485D01*
X36142Y-23847D02*
X36742Y-24114D01*
X36142Y-24114D02*
X36742Y-23847D01*
X36742Y-24476D02*
X36742Y-24247D01*
X36742Y-24361D02*
X36142Y-24361D01*
X36228Y-24323D01*
X36285Y-24285D01*
X36314Y-24247D01*
X36142Y-24723D02*
X36142Y-24761D01*
X36171Y-24800D01*
X36200Y-24819D01*
X36257Y-24838D01*
X36371Y-24857D01*
X36514Y-24857D01*
X36628Y-24838D01*
X36685Y-24819D01*
X36714Y-24800D01*
X36742Y-24761D01*
X36742Y-24723D01*
X36714Y-24685D01*
X36685Y-24666D01*
X36628Y-24647D01*
X36514Y-24628D01*
X36371Y-24628D01*
X36257Y-24647D01*
X36200Y-24666D01*
X36171Y-24685D01*
X36142Y-24723D01*
G54D12*
G54D14*
X18775Y-17684D02*
X18094Y-17684D01*
X18094Y-17847D01*
X18127Y-17887D01*
X18159Y-17908D01*
X18224Y-17928D01*
X18321Y-17928D01*
X18386Y-17908D01*
X18418Y-17887D01*
X18451Y-17847D01*
X18451Y-17684D01*
X18775Y-18336D02*
X18775Y-18091D01*
X18775Y-18214D02*
X18094Y-18214D01*
X18191Y-18173D01*
X18256Y-18132D01*
X18289Y-18091D01*
G54D12*
G54D15*
X18685Y-21390D02*
X18714Y-21371D01*
X18742Y-21314D01*
X18742Y-21276D01*
X18714Y-21219D01*
X18657Y-21180D01*
X18600Y-21161D01*
X18485Y-21142D01*
X18400Y-21142D01*
X18285Y-21161D01*
X18228Y-21180D01*
X18171Y-21219D01*
X18142Y-21276D01*
X18142Y-21314D01*
X18171Y-21371D01*
X18200Y-21390D01*
X18142Y-21638D02*
X18142Y-21714D01*
X18171Y-21752D01*
X18228Y-21790D01*
X18342Y-21809D01*
X18542Y-21809D01*
X18657Y-21790D01*
X18714Y-21752D01*
X18742Y-21714D01*
X18742Y-21638D01*
X18714Y-21600D01*
X18657Y-21561D01*
X18542Y-21542D01*
X18342Y-21542D01*
X18228Y-21561D01*
X18171Y-21600D01*
X18142Y-21638D01*
X18742Y-21980D02*
X18142Y-21980D01*
X18742Y-22209D01*
X18142Y-22209D01*
X18742Y-22400D02*
X18142Y-22400D01*
X18742Y-22628D01*
X18142Y-22628D01*
X18800Y-22723D02*
X18800Y-23028D01*
X18142Y-23200D02*
X18142Y-23238D01*
X18171Y-23276D01*
X18200Y-23295D01*
X18257Y-23314D01*
X18371Y-23333D01*
X18514Y-23333D01*
X18628Y-23314D01*
X18685Y-23295D01*
X18714Y-23276D01*
X18742Y-23238D01*
X18742Y-23200D01*
X18714Y-23161D01*
X18685Y-23142D01*
X18628Y-23123D01*
X18514Y-23104D01*
X18371Y-23104D01*
X18257Y-23123D01*
X18200Y-23142D01*
X18171Y-23161D01*
X18142Y-23200D01*
X18742Y-23714D02*
X18742Y-23485D01*
X18742Y-23600D02*
X18142Y-23600D01*
X18228Y-23561D01*
X18285Y-23523D01*
X18314Y-23485D01*
X18142Y-23847D02*
X18742Y-24114D01*
X18142Y-24114D02*
X18742Y-23847D01*
X18742Y-24476D02*
X18742Y-24247D01*
X18742Y-24361D02*
X18142Y-24361D01*
X18228Y-24323D01*
X18285Y-24285D01*
X18314Y-24247D01*
X18142Y-24723D02*
X18142Y-24761D01*
X18171Y-24800D01*
X18200Y-24819D01*
X18257Y-24838D01*
X18371Y-24857D01*
X18514Y-24857D01*
X18628Y-24838D01*
X18685Y-24819D01*
X18714Y-24800D01*
X18742Y-24761D01*
X18742Y-24723D01*
X18714Y-24685D01*
X18685Y-24666D01*
X18628Y-24647D01*
X18514Y-24628D01*
X18371Y-24628D01*
X18257Y-24647D01*
X18200Y-24666D01*
X18171Y-24685D01*
X18142Y-24723D01*
G54D12*
G54D16*
X28142Y-32657D02*
X28628Y-32657D01*
X28685Y-32678D01*
X28714Y-32700D01*
X28742Y-32742D01*
X28742Y-32828D01*
X28714Y-32871D01*
X28685Y-32892D01*
X28628Y-32914D01*
X28142Y-32914D01*
X28742Y-33364D02*
X28742Y-33107D01*
X28742Y-33235D02*
X28142Y-33235D01*
X28228Y-33192D01*
X28285Y-33150D01*
X28314Y-33107D01*
G54D12*
G54D16*
X28142Y-22200D02*
X28142Y-22457D01*
X28742Y-22328D02*
X28142Y-22328D01*
X28742Y-22821D02*
X28742Y-22607D01*
X28142Y-22607D01*
X28685Y-23228D02*
X28714Y-23207D01*
X28742Y-23142D01*
X28742Y-23100D01*
X28714Y-23035D01*
X28657Y-22992D01*
X28600Y-22971D01*
X28485Y-22950D01*
X28400Y-22950D01*
X28285Y-22971D01*
X28228Y-22992D01*
X28171Y-23035D01*
X28142Y-23100D01*
X28142Y-23142D01*
X28171Y-23207D01*
X28200Y-23228D01*
X28142Y-23635D02*
X28142Y-23421D01*
X28428Y-23400D01*
X28400Y-23421D01*
X28371Y-23464D01*
X28371Y-23571D01*
X28400Y-23614D01*
X28428Y-23635D01*
X28485Y-23657D01*
X28628Y-23657D01*
X28685Y-23635D01*
X28714Y-23614D01*
X28742Y-23571D01*
X28742Y-23464D01*
X28714Y-23421D01*
X28685Y-23400D01*
X28742Y-23871D02*
X28742Y-23957D01*
X28714Y-24000D01*
X28685Y-24021D01*
X28600Y-24064D01*
X28485Y-24085D01*
X28257Y-24085D01*
X28200Y-24064D01*
X28171Y-24042D01*
X28142Y-24000D01*
X28142Y-23914D01*
X28171Y-23871D01*
X28200Y-23850D01*
X28257Y-23828D01*
X28400Y-23828D01*
X28457Y-23850D01*
X28485Y-23871D01*
X28514Y-23914D01*
X28514Y-24000D01*
X28485Y-24042D01*
X28457Y-24064D01*
X28400Y-24085D01*
X28342Y-24471D02*
X28742Y-24471D01*
X28114Y-24364D02*
X28542Y-24257D01*
X28542Y-24535D01*
X28142Y-24792D02*
X28142Y-24835D01*
X28171Y-24878D01*
X28200Y-24900D01*
X28257Y-24921D01*
X28371Y-24942D01*
X28514Y-24942D01*
X28628Y-24921D01*
X28685Y-24900D01*
X28714Y-24878D01*
X28742Y-24835D01*
X28742Y-24792D01*
X28714Y-24750D01*
X28685Y-24728D01*
X28628Y-24707D01*
X28514Y-24685D01*
X28371Y-24685D01*
X28257Y-24707D01*
X28200Y-24728D01*
X28171Y-24750D01*
X28142Y-24792D01*
X28742Y-25135D02*
X28142Y-25135D01*
X28742Y-25392D01*
X28142Y-25392D01*
X28142Y-25542D02*
X28142Y-25800D01*
X28742Y-25671D02*
X28142Y-25671D01*
G54D12*
G54D17*
X33722Y-27516D02*
X33460Y-27350D01*
X33722Y-27230D02*
X33172Y-27230D01*
X33172Y-27421D01*
X33198Y-27469D01*
X33225Y-27492D01*
X33277Y-27516D01*
X33355Y-27516D01*
X33408Y-27492D01*
X33434Y-27469D01*
X33460Y-27421D01*
X33460Y-27230D01*
X33722Y-27992D02*
X33722Y-27707D01*
X33722Y-27850D02*
X33172Y-27850D01*
X33251Y-27802D01*
X33303Y-27754D01*
X33329Y-27707D01*
M02*
